<?xml version="1.0" encoding="utf-8"?>
<!-- Generator: Adobe Illustrator 16.0.0, SVG Export Plug-In . SVG Version: 6.00 Build 0)  -->
<!DOCTYPE svg PUBLIC "-//W3C//DTD SVG 1.1//EN" "http://www.w3.org/Graphics/SVG/1.1/DTD/svg11.dtd">
<svg version="1.1" id="Layer_1" xmlns="http://www.w3.org/2000/svg" xmlns:xlink="http://www.w3.org/1999/xlink" x="0px" y="0px"
	 width="212.149px" height="34.783px" viewBox="0 0 212.149 34.783" enable-background="new 0 0 212.149 34.783"
	 xml:space="preserve">
<g>
	<path fill="#405972" d="M0.26,31.5c0,1.812,0.727,3.283,1.621,3.283H210.14c0.896,0,1.62-1.471,1.62-3.283l0,0
		c0-1.814-0.725-3.285-1.62-3.285H1.881C0.986,28.215,0.26,29.686,0.26,31.5L0.26,31.5z"/>
	<path fill="#3881C2" d="M0.5,6.932c0-2.868,2.326-5.193,5.193-5.193h200.763c2.868,0,5.193,2.325,5.193,5.193v17.375
		c0,2.868-2.325,5.193-5.193,5.193H5.693c-2.867,0-5.193-2.325-5.193-5.193V6.932z"/>
	<rect x="0.5" y="18.411" fill="#4094D3" width="208.008" height="2.411"/>
	<g>
		<rect x="86.691" y="1.738" fill="#AEAEAE" width="18.375" height="27.762"/>
		<g>
			<rect x="101.879" y="1.738" fill="#9B9B9B" width="1.5" height="27.762"/>
			<rect x="98.504" y="1.738" fill="#9B9B9B" width="1.5" height="27.762"/>
			<rect x="95.129" y="1.738" fill="#9B9B9B" width="1.5" height="27.762"/>
			<rect x="91.754" y="1.738" fill="#9B9B9B" width="1.5" height="27.762"/>
			<rect x="88.379" y="1.738" fill="#9B9B9B" width="1.5" height="27.762"/>
		</g>
	</g>
	<path fill="#AFB1AC" d="M208.536,4.209h2.325c0.49,0.793,0.788,1.721,0.788,2.723v13.785h-3.113c-0.863,0-1.563-0.7-1.563-1.564
		V5.773C206.973,4.909,207.673,4.209,208.536,4.209z"/>
	<path fill="none" stroke="#4E6B8D" stroke-miterlimit="10" d="M0.5,6.932c0-2.868,2.326-5.193,5.193-5.193h200.763
		c2.868,0,5.193,2.325,5.193,5.193v17.375c0,2.868-2.325,5.193-5.193,5.193H5.693c-2.867,0-5.193-2.325-5.193-5.193V6.932z"/>
	<path fill="none" stroke="#4E6B8D" stroke-miterlimit="10" d="M208.536,4.209h2.325c0.49,0.793,0.788,1.721,0.788,2.723v13.785
		h-3.113c-0.863,0-1.563-0.7-1.563-1.564V5.773C206.973,4.909,207.673,4.209,208.536,4.209z"/>
	<g>
		<path fill="none" stroke="#4E6B8D" stroke-miterlimit="10" d="M178.533,24.375h4.381c1.666,0,3.018,1.352,3.018,3.018V29.5
			h-10.416v-2.107C175.516,25.727,176.866,24.375,178.533,24.375z"/>
		<circle fill="#4E6B8D" cx="180.724" cy="29.5" r="3.925"/>
		<path fill="#4E6B8D" d="M178.533,24.375h4.381c1.666,0,3.018,1.352,3.018,3.018V29.5h-10.416v-2.107
			C175.516,25.727,176.866,24.375,178.533,24.375z"/>
		<circle fill="none" stroke="#4E6B8D" stroke-miterlimit="10" cx="180.724" cy="29.5" r="3.925"/>
		<circle fill="#9DAEC2" cx="180.724" cy="29.5" r="1.675"/>
	</g>
	<g>
		<circle fill="#4E6B8D" cx="42.126" cy="29.5" r="3.925"/>
		<path fill="none" stroke="#4E6B8D" stroke-miterlimit="10" d="M39.936,24.375h4.381c1.666,0,3.018,1.352,3.018,3.018V29.5H36.918
			v-2.107C36.918,25.727,38.269,24.375,39.936,24.375z"/>
		<path fill="#4E6B8D" d="M39.936,24.375h4.381c1.666,0,3.018,1.352,3.018,3.018V29.5H36.918v-2.107
			C36.918,25.727,38.269,24.375,39.936,24.375z"/>
		<circle fill="none" stroke="#4E6B8D" stroke-miterlimit="10" cx="42.126" cy="29.5" r="3.925"/>
		<circle fill="#9DAEC2" cx="42.126" cy="29.5" r="1.675"/>
	</g>
	<g>
		<circle fill="#4E6B8D" cx="115.636" cy="29.5" r="3.925"/>
		<path fill="none" stroke="#4E6B8D" stroke-miterlimit="10" d="M113.445,24.375h4.381c1.666,0,3.018,1.352,3.018,3.018V29.5
			h-10.416v-2.107C110.428,25.727,111.778,24.375,113.445,24.375z"/>
		<path fill="#4E6B8D" d="M113.445,24.375h4.381c1.666,0,3.018,1.352,3.018,3.018V29.5h-10.416v-2.107
			C110.428,25.727,111.778,24.375,113.445,24.375z"/>
		<circle fill="none" stroke="#4E6B8D" stroke-miterlimit="10" cx="115.636" cy="29.5" r="3.925"/>
		<circle fill="#9DAEC2" cx="115.636" cy="29.5" r="1.675"/>
	</g>
	<path fill="#663C3B" d="M1.879,19.042c0.504,0,0.912,0.408,0.912,0.912v3.793c0,0.504-0.408,0.912-0.912,0.912H0.536
		C0.527,24.541,0.5,24.428,0.5,24.307v-5.265H1.879z"/>
	<path fill="none" stroke="#4E6B8D" stroke-miterlimit="10" d="M1.879,19.042c0.504,0,0.912,0.408,0.912,0.912v3.793
		c0,0.504-0.408,0.912-0.912,0.912H0.536C0.527,24.541,0.5,24.428,0.5,24.307v-5.265H1.879z"/>
	<path fill="#FFFFFF" d="M209.975,23.115h1.675v1.191c0,2.092-1.244,3.884-3.026,4.707v-4.547
		C208.623,23.721,209.229,23.115,209.975,23.115z"/>
	<path fill="none" stroke="#4E6B8D" stroke-miterlimit="10" d="M209.975,23.115h1.675v1.191c0,2.092-1.244,3.884-3.026,4.707v-4.547
		C208.623,23.721,209.229,23.115,209.975,23.115z"/>
	<g>
		<path fill="#AFB1AC" d="M189.797,23.593c0,0.864,0.701,1.564,1.564,1.564h10.34c0.863,0,1.563-0.7,1.563-1.564V5.773
			c0-0.864-0.7-1.564-1.563-1.564h-10.34c-0.863,0-1.564,0.7-1.564,1.564V23.593z"/>
		<path fill="none" stroke="#4E6B8D" stroke-miterlimit="10" d="M189.797,23.593c0,0.864,0.701,1.564,1.564,1.564h10.34
			c0.863,0,1.563-0.7,1.563-1.564V5.773c0-0.864-0.7-1.564-1.563-1.564h-10.34c-0.863,0-1.564,0.7-1.564,1.564V23.593z"/>
		<path fill="none" stroke="#4E6B8D" stroke-miterlimit="10" d="M196.527,25.157c0.017-2.236,0-20.948,0-20.948"/>
	</g>
	<g>
		<g>
			<path fill="#AFB1AC" d="M173.99,15.152c0,0.864,0.699,1.564,1.562,1.564h10.34c0.864,0,1.564-0.7,1.564-1.564V5.773
				c0-0.864-0.7-1.564-1.564-1.564h-10.34c-0.863,0-1.562,0.7-1.562,1.564V15.152z"/>
			<path fill="none" stroke="#4E6B8D" stroke-miterlimit="10" d="M173.99,15.152c0,0.864,0.699,1.564,1.562,1.564h10.34
				c0.864,0,1.564-0.7,1.564-1.564V5.773c0-0.864-0.7-1.564-1.564-1.564h-10.34c-0.863,0-1.562,0.7-1.562,1.564V15.152z"/>
			<line fill="none" stroke="#4E6B8D" stroke-miterlimit="10" x1="187.289" y1="8.966" x2="173.99" y2="8.966"/>
			<path fill="none" stroke="#4E6B8D" stroke-miterlimit="10" d="M180.723,8.966c0.018-0.508,0-4.757,0-4.757"/>
		</g>
		<g>
			<path fill="#AFB1AC" d="M157.652,23.593c0,0.864,0.7,1.564,1.563,1.564h10.34c0.864,0,1.563-0.7,1.563-1.564V5.773
				c0-0.864-0.699-1.564-1.563-1.564h-10.34c-0.863,0-1.563,0.7-1.563,1.564V23.593z"/>
			<path fill="none" stroke="#4E6B8D" stroke-miterlimit="10" d="M157.652,23.593c0,0.864,0.7,1.564,1.563,1.564h10.34
				c0.864,0,1.563-0.7,1.563-1.564V5.773c0-0.864-0.699-1.564-1.563-1.564h-10.34c-0.863,0-1.563,0.7-1.563,1.564V23.593z"/>
			<path fill="none" stroke="#4E6B8D" stroke-miterlimit="10" d="M164.383,25.157c0.016-2.236,0-20.948,0-20.948"/>
		</g>
		<g>
			<path fill="#AFB1AC" d="M141.365,15.152c0,0.864,0.699,1.564,1.562,1.564h10.34c0.864,0,1.564-0.7,1.564-1.564V5.773
				c0-0.864-0.7-1.564-1.564-1.564h-10.34c-0.863,0-1.562,0.7-1.562,1.564V15.152z"/>
			<path fill="none" stroke="#4E6B8D" stroke-miterlimit="10" d="M141.365,15.152c0,0.864,0.699,1.564,1.562,1.564h10.34
				c0.864,0,1.564-0.7,1.564-1.564V5.773c0-0.864-0.7-1.564-1.564-1.564h-10.34c-0.863,0-1.562,0.7-1.562,1.564V15.152z"/>
			<line fill="none" stroke="#4E6B8D" stroke-miterlimit="10" x1="154.664" y1="8.966" x2="141.365" y2="8.966"/>
			<path fill="none" stroke="#4E6B8D" stroke-miterlimit="10" d="M148.098,8.966c0.018-0.508,0-4.757,0-4.757"/>
		</g>
		<g>
			<path fill="#AFB1AC" d="M108.986,15.152c0,0.864,0.699,1.564,1.562,1.564h10.34c0.864,0,1.564-0.7,1.564-1.564V5.773
				c0-0.864-0.7-1.564-1.564-1.564h-10.34c-0.863,0-1.562,0.7-1.562,1.564V15.152z"/>
			<path fill="none" stroke="#4E6B8D" stroke-miterlimit="10" d="M108.986,15.152c0,0.864,0.699,1.564,1.562,1.564h10.34
				c0.864,0,1.564-0.7,1.564-1.564V5.773c0-0.864-0.7-1.564-1.564-1.564h-10.34c-0.863,0-1.562,0.7-1.562,1.564V15.152z"/>
			<line fill="none" stroke="#4E6B8D" stroke-miterlimit="10" x1="122.285" y1="8.966" x2="108.986" y2="8.966"/>
			<path fill="none" stroke="#4E6B8D" stroke-miterlimit="10" d="M115.719,8.966c0.018-0.508,0-4.757,0-4.757"/>
		</g>
		<g>
			<path fill="#AFB1AC" d="M125.027,23.593c0,0.864,0.7,1.564,1.563,1.564h10.34c0.864,0,1.563-0.7,1.563-1.564V5.773
				c0-0.864-0.699-1.564-1.563-1.564h-10.34c-0.863,0-1.563,0.7-1.563,1.564V23.593z"/>
			<path fill="none" stroke="#4E6B8D" stroke-miterlimit="10" d="M125.027,23.593c0,0.864,0.7,1.564,1.563,1.564h10.34
				c0.864,0,1.563-0.7,1.563-1.564V5.773c0-0.864-0.699-1.564-1.563-1.564h-10.34c-0.863,0-1.563,0.7-1.563,1.564V23.593z"/>
			<path fill="none" stroke="#4E6B8D" stroke-miterlimit="10" d="M131.758,25.157c0.016-2.236,0-20.948,0-20.948"/>
		</g>
	</g>
	<g>
		<g>
			<path fill="#AFB1AC" d="M68.102,15.152c0,0.864,0.699,1.564,1.562,1.564h10.34c0.864,0,1.564-0.7,1.564-1.564V5.773
				c0-0.864-0.7-1.564-1.564-1.564h-10.34c-0.863,0-1.562,0.7-1.562,1.564V15.152z"/>
			<path fill="none" stroke="#4E6B8D" stroke-miterlimit="10" d="M68.102,15.152c0,0.864,0.699,1.564,1.562,1.564h10.34
				c0.864,0,1.564-0.7,1.564-1.564V5.773c0-0.864-0.7-1.564-1.564-1.564h-10.34c-0.863,0-1.562,0.7-1.562,1.564V15.152z"/>
			<line fill="none" stroke="#4E6B8D" stroke-miterlimit="10" x1="81.4" y1="8.966" x2="68.102" y2="8.966"/>
			<path fill="none" stroke="#4E6B8D" stroke-miterlimit="10" d="M74.834,8.966c0.018-0.508,0-4.757,0-4.757"/>
		</g>
		<g>
			<path fill="#AFB1AC" d="M51.764,23.593c0,0.864,0.7,1.564,1.563,1.564h10.34c0.864,0,1.563-0.7,1.563-1.564V5.773
				c0-0.864-0.699-1.564-1.563-1.564h-10.34c-0.863,0-1.563,0.7-1.563,1.564V23.593z"/>
			<path fill="none" stroke="#4E6B8D" stroke-miterlimit="10" d="M51.764,23.593c0,0.864,0.7,1.564,1.563,1.564h10.34
				c0.864,0,1.563-0.7,1.563-1.564V5.773c0-0.864-0.699-1.564-1.563-1.564h-10.34c-0.863,0-1.563,0.7-1.563,1.564V23.593z"/>
			<path fill="none" stroke="#4E6B8D" stroke-miterlimit="10" d="M58.494,25.157c0.016-2.236,0-20.948,0-20.948"/>
		</g>
		<g>
			<path fill="#AFB1AC" d="M35.477,15.152c0,0.864,0.699,1.564,1.562,1.564h10.34c0.864,0,1.564-0.7,1.564-1.564V5.773
				c0-0.864-0.7-1.564-1.564-1.564h-10.34c-0.863,0-1.562,0.7-1.562,1.564V15.152z"/>
			<path fill="none" stroke="#4E6B8D" stroke-miterlimit="10" d="M35.477,15.152c0,0.864,0.699,1.564,1.562,1.564h10.34
				c0.864,0,1.564-0.7,1.564-1.564V5.773c0-0.864-0.7-1.564-1.564-1.564h-10.34c-0.863,0-1.562,0.7-1.562,1.564V15.152z"/>
			<line fill="none" stroke="#4E6B8D" stroke-miterlimit="10" x1="48.775" y1="8.966" x2="35.477" y2="8.966"/>
			<path fill="none" stroke="#4E6B8D" stroke-miterlimit="10" d="M42.209,8.966c0.018-0.508,0-4.757,0-4.757"/>
		</g>
		<g>
			<path fill="#AFB1AC" d="M3.098,15.152c0,0.864,0.699,1.564,1.562,1.564H15c0.864,0,1.564-0.7,1.564-1.564V5.773
				c0-0.864-0.7-1.564-1.564-1.564H4.66c-0.863,0-1.562,0.7-1.562,1.564V15.152z"/>
			<path fill="none" stroke="#4E6B8D" stroke-miterlimit="10" d="M3.098,15.152c0,0.864,0.699,1.564,1.562,1.564H15
				c0.864,0,1.564-0.7,1.564-1.564V5.773c0-0.864-0.7-1.564-1.564-1.564H4.66c-0.863,0-1.562,0.7-1.562,1.564V15.152z"/>
			<line fill="none" stroke="#4E6B8D" stroke-miterlimit="10" x1="16.396" y1="8.966" x2="3.098" y2="8.966"/>
			<path fill="none" stroke="#4E6B8D" stroke-miterlimit="10" d="M9.83,8.966c0.018-0.508,0-4.757,0-4.757"/>
		</g>
		<g>
			<path fill="#AFB1AC" d="M19.139,23.593c0,0.864,0.7,1.564,1.563,1.564h10.34c0.864,0,1.563-0.7,1.563-1.564V5.773
				c0-0.864-0.699-1.564-1.563-1.564h-10.34c-0.863,0-1.563,0.7-1.563,1.564V23.593z"/>
			<path fill="none" stroke="#4E6B8D" stroke-miterlimit="10" d="M19.139,23.593c0,0.864,0.7,1.564,1.563,1.564h10.34
				c0.864,0,1.563-0.7,1.563-1.564V5.773c0-0.864-0.699-1.564-1.563-1.564h-10.34c-0.863,0-1.563,0.7-1.563,1.564V23.593z"/>
			<path fill="none" stroke="#4E6B8D" stroke-miterlimit="10" d="M25.869,25.157c0.016-2.236,0-20.948,0-20.948"/>
		</g>
	</g>
	<rect x="186.515" y="0.5" fill="none" stroke="#4E6B8D" stroke-miterlimit="10" width="16.75" height="1.238"/>
	<rect x="156.008" y="0.5" fill="none" stroke="#4E6B8D" stroke-miterlimit="10" width="16.75" height="1.238"/>
	<rect x="25.569" y="0.5" fill="none" stroke="#4E6B8D" stroke-miterlimit="10" width="25.015" height="1.238"/>
</g>
</svg>
