<?xml version="1.0" encoding="utf-8"?>
<!-- Generator: Adobe Illustrator 16.0.0, SVG Export Plug-In . SVG Version: 6.00 Build 0)  -->
<!DOCTYPE svg PUBLIC "-//W3C//DTD SVG 1.1//EN" "http://www.w3.org/Graphics/SVG/1.1/DTD/svg11.dtd">
<svg version="1.1" id="Layer_1" xmlns="http://www.w3.org/2000/svg" xmlns:xlink="http://www.w3.org/1999/xlink" x="0px" y="0px"
	 width="56.183px" height="24.819px" viewBox="0 0 56.183 24.819" enable-background="new 0 0 56.183 24.819" xml:space="preserve">
<g>
	<g>
		<path fill="#AFB1AC" d="M43.158,8.058c0,0-4.392-7.594-14.156-7.594h-3.399l0,0c-12.085,0-14.485,3.337-16.56,7.594"/>
		<g>
			<ellipse fill="#405972" cx="27.795" cy="21.579" rx="27.389" ry="3.24"/>
			<rect x="3.932" y="12.88" fill="#4E6B8D" width="47.501" height="6.889"/>
			<circle fill="#4E6B8D" cx="10.036" cy="18.337" r="3.962"/>
			<circle fill="#4E6B8D" cx="46.178" cy="18.337" r="3.881"/>
			<circle fill="#9DAEC2" cx="10.037" cy="18.337" r="1.709"/>
			<circle fill="#9DAEC2" cx="46.178" cy="18.337" r="1.861"/>
			<g>
				<g>
					<path fill="#D15E5E" d="M54.125,14.728h-0.156c0.014-0.129,0-0.256,0-0.389v-2.604c0-2.03-1.646-3.678-3.679-3.678H5.57
						c-2.031,0-3.679,1.647-3.679,3.678v2.459c-0.79,0-1.431,0.641-1.431,1.43v2.152c0,0.791,0.641,1.432,1.431,1.432h3.211v-1.932
						c0.487-2.26,2.495-3.953,4.899-3.953c2.77,0,5.015,2.244,5.015,5.014c0,0.311-0.032,0.613-0.086,0.908h26.312
						c-0.053-0.295-0.086-0.598-0.086-0.908c0-2.77,2.246-5.014,5.016-5.014s5.014,2.244,5.014,5.014
						c0,0.277-0.027,0.547-0.07,0.812h3.01c0.882,0,1.597-0.635,1.597-2.195C55.722,15.546,55.007,14.728,54.125,14.728z"/>
					<path fill="#D15E5E" d="M25.294,8.058c-6.909,0-11.132-2.517-11.132-2.517c1.766-5.374,11.132-5.077,11.132-5.077
						S12.268-0.457,9.133,8.058H25.294"/>
					<path fill="#F47171" d="M51.397,11.093c0,0.383-0.31,0.691-0.69,0.691H5.025c-0.381,0-0.69-0.309-0.69-0.691l0,0
						c0-0.381,0.31-0.69,0.69-0.69h45.682C51.088,10.402,51.397,10.712,51.397,11.093L51.397,11.093z"/>
				</g>
				<path fill="#FFFFFF" d="M51.397,11.087v1.535c0,0.547,0.442,0.992,0.989,0.992h1.582v-1.879c0-0.59-0.143-1.146-0.389-1.64
					h-1.193C51.84,10.096,51.397,10.538,51.397,11.087z"/>
				<path fill="#663C3B" d="M5.57,8.058c-2.031,0-3.679,1.647-3.679,3.678v1.145h2.67c0.78,0,1.411-0.631,1.411-1.41V8.058H5.57z"/>
			</g>
		</g>
	</g>
	<g>
		<g>
			<path fill="#4E6B8D" d="M25.294,8.519c-6.956,0-11.19-2.477-11.368-2.582l-0.316-0.188l0.115-0.352
				c1.852-5.637,11.188-5.405,11.584-5.393c0.254,0.008,0.454,0.221,0.445,0.475c-0.008,0.254-0.232,0.457-0.475,0.446
				c-0.086-0.005-8.605-0.212-10.545,4.4c1.117,0.565,4.954,2.271,10.56,2.271c0.255,0,0.461,0.206,0.461,0.461
				C25.755,8.312,25.549,8.519,25.294,8.519z"/>
		</g>
		<g>
			<path fill="#4E6B8D" d="M9.042,8.519c-0.067,0-0.136-0.016-0.201-0.047C8.611,8.36,8.518,8.085,8.629,7.856
				c2.168-4.45,4.794-7.853,16.974-7.853h3.399c9.916,0,14.51,7.745,14.555,7.823c0.127,0.22,0.053,0.501-0.168,0.629
				c-0.221,0.126-0.502,0.052-0.629-0.167c-0.043-0.074-4.387-7.364-13.758-7.364h-3.399c-11.67,0-14.053,3.04-16.146,7.334
				C9.377,8.423,9.213,8.519,9.042,8.519z"/>
		</g>
		<g>
			<path fill="#4E6B8D" d="M41.795,19.706H14.379l0.1-0.543c0.052-0.289,0.077-0.559,0.077-0.826c0-2.51-2.042-4.553-4.554-4.553
				c-2.114,0-3.973,1.486-4.439,3.543v2.34H1.892C0.849,19.667,0,18.819,0,17.776v-2.152c0-0.883,0.609-1.627,1.432-1.834v-2.055
				c0-2.281,1.856-4.139,4.139-4.139h44.72c2.282,0,4.14,1.857,4.14,4.139v2.555c1.047,0.17,1.753,1.217,1.753,2.664
				c0,1.959-1.063,2.656-2.058,2.656h-3.552l0.087-0.535c0.044-0.27,0.065-0.512,0.065-0.738c0-2.51-2.043-4.553-4.554-4.553
				c-2.512,0-4.555,2.043-4.555,4.553c0,0.268,0.026,0.537,0.078,0.826L41.795,19.706z M15.458,18.784h25.257
				c-0.012-0.15-0.019-0.299-0.019-0.447c0-3.018,2.456-5.475,5.476-5.475c3.019,0,5.475,2.457,5.475,5.475
				c0,0.115-0.004,0.232-0.013,0.352h2.491c0.939,0,1.137-0.943,1.137-1.734c0-1.057-0.457-1.768-1.137-1.768h-0.669l0.054-0.51
				c0.008-0.062,0.004-0.125,0.002-0.189l-0.004-0.148v-2.604c0-1.773-1.443-3.217-3.218-3.217H5.57
				c-1.774,0-3.218,1.443-3.218,3.217v2.92H1.892c-0.534,0-0.97,0.434-0.97,0.969v2.152c0,0.535,0.436,0.971,0.97,0.971h2.75
				l0.011-1.568c0.539-2.502,2.789-4.316,5.35-4.316c3.02,0,5.475,2.457,5.475,5.475C15.477,18.485,15.471,18.634,15.458,18.784z"/>
		</g>
		<g>
			<path fill="#4E6B8D" d="M25.294,19.706c-0.255,0-0.46-0.207-0.46-0.461V0.464c0-0.254,0.205-0.46,0.46-0.46
				s0.461,0.206,0.461,0.46v18.781C25.755,19.499,25.549,19.706,25.294,19.706z"/>
		</g>
		<g>
			<path fill="#4E6B8D" d="M39.574,16.442H16.337c-0.255,0-0.461-0.207-0.461-0.461s0.206-0.461,0.461-0.461h23.237
				c0.254,0,0.461,0.207,0.461,0.461S39.828,16.442,39.574,16.442z"/>
		</g>
		<g>
			<path fill="#4E6B8D" d="M54.43,14.073h-2.043c-0.799,0-1.45-0.65-1.45-1.451v-1.535c0-0.801,0.651-1.452,1.45-1.452h1.478
				l0.127,0.255c0.29,0.581,0.438,1.201,0.438,1.846V14.073z M52.387,10.556c-0.291,0-0.529,0.238-0.529,0.531v1.535
				c0,0.293,0.238,0.531,0.529,0.531h1.121v-1.418c0-0.406-0.076-0.803-0.227-1.18H52.387z"/>
		</g>
		<g>
			<path fill="#4E6B8D" d="M4.562,13.341h-3.13v-1.605c0-2.281,1.856-4.139,4.139-4.139h0.863v3.873
				C6.434,12.501,5.594,13.341,4.562,13.341z M2.353,12.421h2.209c0.524,0,0.95-0.428,0.95-0.951V8.519
				C3.764,8.55,2.353,9.981,2.353,11.735V12.421z"/>
		</g>
	</g>
</g>
</svg>
