<?xml version="1.0" encoding="utf-8"?>
<!-- Generator: Adobe Illustrator 16.0.0, SVG Export Plug-In . SVG Version: 6.00 Build 0)  -->
<!DOCTYPE svg PUBLIC "-//W3C//DTD SVG 1.1//EN" "http://www.w3.org/Graphics/SVG/1.1/DTD/svg11.dtd">
<svg version="1.1" id="Layer_1" xmlns="http://www.w3.org/2000/svg" xmlns:xlink="http://www.w3.org/1999/xlink" x="0px" y="0px"
	 width="55.918px" height="25.93px" viewBox="0 0 55.918 25.93" enable-background="new 0 0 55.918 25.93" xml:space="preserve">
<g>
	<path fill="#405972" d="M0.365,22.646c0,1.812,0.726,3.283,1.62,3.283h52.312c0.895,0,1.62-1.471,1.62-3.283l0,0
		c0-1.814-0.726-3.285-1.62-3.285H1.985C1.091,19.361,0.365,20.832,0.365,22.646L0.365,22.646z"/>
	<g>
		<path fill="#429E07" d="M1.374,14.381h0.627v-2.738c0-0.003,0-0.006,0-0.009c-0.004-0.052-0.016-0.102-0.016-0.154V8.558
			l2.703-6.145C5.134,1.316,5.843,0.5,6.899,0.5h24.047c0.863,0,8.441,5.477,11.188,8.058l8.716,1c1.703,0,3.085,1.381,3.085,3.085
			v1.738h0.19c0.482,0,0.874,0.391,0.874,0.873v4.618c0,0.482-0.392,0.874-0.874,0.874H1.374c-0.482,0-0.874-0.392-0.874-0.874
			v-4.618C0.5,14.771,0.892,14.381,1.374,14.381z"/>
		<path fill="none" stroke="#4E6B8D" stroke-miterlimit="10" d="M1.374,14.381h0.627v-2.738c0-0.003,0-0.006,0-0.009
			c-0.004-0.052-0.016-0.102-0.016-0.154V8.558l2.703-6.145C5.134,1.316,5.843,0.5,6.899,0.5h24.047
			c0.863,0,8.441,5.477,11.188,8.058l8.716,1c1.703,0,3.085,1.381,3.085,3.085v1.738h0.19c0.482,0,0.874,0.391,0.874,0.873v4.618
			c0,0.482-0.392,0.874-0.874,0.874H1.374c-0.482,0-0.874-0.392-0.874-0.874v-4.618C0.5,14.771,0.892,14.381,1.374,14.381z"/>
		<g>
			<circle fill="#4E6B8D" cx="45.042" cy="20.646" r="3.925"/>
			<path fill="none" stroke="#4E6B8D" stroke-miterlimit="10" d="M42.852,15.521h4.38c1.668,0,3.019,1.352,3.019,3.018v2.107H39.833
				v-2.107C39.833,16.873,41.185,15.521,42.852,15.521z"/>
			<path fill="#4E6B8D" d="M42.852,15.521h4.38c1.668,0,3.019,1.352,3.019,3.018v2.107H39.833v-2.107
				C39.833,16.873,41.185,15.521,42.852,15.521z"/>
			<circle fill="none" stroke="#4E6B8D" stroke-miterlimit="10" cx="45.042" cy="20.646" r="3.925"/>
			<circle fill="#9DAEC2" cx="45.042" cy="20.646" r="1.675"/>
		</g>
		<g>
			<circle fill="#4E6B8D" cx="12.625" cy="20.646" r="3.925"/>
			<path fill="none" stroke="#4E6B8D" stroke-miterlimit="10" d="M10.435,15.521h4.381c1.667,0,3.018,1.352,3.018,3.018v2.107H7.417
				v-2.107C7.417,16.873,8.769,15.521,10.435,15.521z"/>
			<path fill="#4E6B8D" d="M10.435,15.521h4.381c1.667,0,3.018,1.352,3.018,3.018v2.107H7.417v-2.107
				C7.417,16.873,8.769,15.521,10.435,15.521z"/>
			<circle fill="none" stroke="#4E6B8D" stroke-miterlimit="10" cx="12.625" cy="20.646" r="3.925"/>
			<circle fill="#9DAEC2" cx="12.625" cy="20.646" r="1.675"/>
		</g>
		<path fill="#AFB1AC" d="M42.135,8.558H11.188L8.87,6.065l1.088-4.102H33.54C36.247,3.771,40.284,6.818,42.135,8.558z"/>
		<path fill="none" stroke="#4E6B8D" stroke-miterlimit="10" d="M42.135,8.558H11.188L8.87,6.065l1.088-4.102H33.54
			C36.247,3.771,40.284,6.818,42.135,8.558z"/>
		<path fill="#FFFFFF" d="M51.247,13.558c-0.375,0-0.68-0.305-0.68-0.681V9.525l0.283,0.032c1.703,0,3.085,1.381,3.085,3.085v0.915
			H51.247z"/>
		<rect x="4.69" y="11.021" fill="#4EB709" width="45.877" height="1.855"/>
		<path fill="#663C3B" d="M4.69,7.443v5.434c0,0.376-0.304,0.681-0.68,0.681h-2.01v-1.915c0-0.003,0-0.006,0-0.009
			c-0.004-0.052-0.016-0.102-0.016-0.154V8.558l0.789-1.794h1.236C4.387,6.764,4.69,7.068,4.69,7.443z"/>
		<line fill="none" stroke="#4E6B8D" stroke-miterlimit="10" x1="25.171" y1="1.964" x2="25.171" y2="20.746"/>
		<path fill="none" stroke="#4E6B8D" stroke-miterlimit="10" d="M51.247,13.558c-0.375,0-0.68-0.305-0.68-0.681V9.525l0.283,0.032
			c1.703,0,3.085,1.381,3.085,3.085v0.915H51.247z"/>
		<path fill="none" stroke="#4E6B8D" stroke-miterlimit="10" d="M4.69,7.443v5.434c0,0.376-0.304,0.681-0.68,0.681h-2.01v-1.915
			c0-0.003,0-0.006,0-0.009c-0.004-0.052-0.016-0.102-0.016-0.154V8.558l0.789-1.794h1.236C4.387,6.764,4.69,7.068,4.69,7.443z"/>
		<line fill="none" stroke="#4E6B8D" stroke-miterlimit="10" x1="37.563" y1="15.521" x2="20.438" y2="15.521"/>
	</g>
</g>
</svg>
