<?xml version="1.0" encoding="utf-8"?>
<!-- Generator: Adobe Illustrator 16.0.0, SVG Export Plug-In . SVG Version: 6.00 Build 0)  -->
<!DOCTYPE svg PUBLIC "-//W3C//DTD SVG 1.1//EN" "http://www.w3.org/Graphics/SVG/1.1/DTD/svg11.dtd">
<svg version="1.1" id="Layer_1" xmlns="http://www.w3.org/2000/svg" xmlns:xlink="http://www.w3.org/1999/xlink" x="0px" y="0px"
	 width="55.918px" height="25.93px" viewBox="0 0 55.918 25.93" enable-background="new 0 0 55.918 25.93" xml:space="preserve">
<g>
	<path fill="#405972" d="M55.553,22.646c0,1.812-0.725,3.283-1.62,3.283H1.621C0.727,25.93,0,24.459,0,22.646l0,0
		c0-1.814,0.727-3.285,1.621-3.285h52.312C54.828,19.361,55.553,20.832,55.553,22.646L55.553,22.646z"/>
	<g>
		<path fill="#DBDBDB" d="M54.545,14.381h-0.627v-2.738c0-0.003-0.001-0.006-0.001-0.009c0.005-0.052,0.016-0.102,0.016-0.154V8.558
			L51.23,2.413C50.785,1.316,50.076,0.5,49.02,0.5H24.973c-0.863,0-8.442,5.477-11.189,8.058l-8.715,1
			c-1.704,0-3.086,1.381-3.086,3.085v1.738h-0.19c-0.482,0-0.874,0.391-0.874,0.873v4.618c0,0.482,0.392,0.874,0.874,0.874h52.753
			c0.482,0,0.873-0.392,0.873-0.874v-4.618C55.418,14.771,55.027,14.381,54.545,14.381z"/>
		<path fill="none" stroke="#4E6B8D" stroke-miterlimit="10" d="M54.545,14.381h-0.627v-2.738c0-0.003-0.001-0.006-0.001-0.009
			c0.005-0.052,0.016-0.102,0.016-0.154V8.558L51.23,2.413C50.785,1.316,50.076,0.5,49.02,0.5H24.973
			c-0.863,0-8.442,5.477-11.189,8.058l-8.715,1c-1.704,0-3.086,1.381-3.086,3.085v1.738h-0.19c-0.482,0-0.874,0.391-0.874,0.873
			v4.618c0,0.482,0.392,0.874,0.874,0.874h52.753c0.482,0,0.873-0.392,0.873-0.874v-4.618
			C55.418,14.771,55.027,14.381,54.545,14.381z"/>
		<g>
			<circle fill="#4E6B8D" cx="10.876" cy="20.646" r="3.925"/>
			<path fill="none" stroke="#4E6B8D" stroke-miterlimit="10" d="M13.066,15.521h-4.38c-1.667,0-3.019,1.352-3.019,3.018v2.107
				h10.417v-2.107C16.085,16.873,14.734,15.521,13.066,15.521z"/>
			<path fill="#4E6B8D" d="M13.066,15.521h-4.38c-1.667,0-3.019,1.352-3.019,3.018v2.107h10.417v-2.107
				C16.085,16.873,14.734,15.521,13.066,15.521z"/>
			<circle fill="none" stroke="#4E6B8D" stroke-miterlimit="10" cx="10.876" cy="20.646" r="3.925"/>
			<circle fill="#9DAEC2" cx="10.876" cy="20.646" r="1.675"/>
		</g>
		<g>
			<circle fill="#4E6B8D" cx="43.293" cy="20.646" r="3.925"/>
			<path fill="none" stroke="#4E6B8D" stroke-miterlimit="10" d="M45.483,15.521h-4.38c-1.668,0-3.019,1.352-3.019,3.018v2.107
				h10.417v-2.107C48.502,16.873,47.15,15.521,45.483,15.521z"/>
			<path fill="#4E6B8D" d="M45.483,15.521h-4.38c-1.668,0-3.019,1.352-3.019,3.018v2.107h10.417v-2.107
				C48.502,16.873,47.15,15.521,45.483,15.521z"/>
			<circle fill="none" stroke="#4E6B8D" stroke-miterlimit="10" cx="43.293" cy="20.646" r="3.925"/>
			<circle fill="#9DAEC2" cx="43.293" cy="20.646" r="1.675"/>
		</g>
		<path fill="#AFB1AC" d="M13.783,8.558H44.73l2.318-2.492L45.96,1.964H22.378C19.672,3.771,15.634,6.818,13.783,8.558z"/>
		<path fill="none" stroke="#4E6B8D" stroke-miterlimit="10" d="M13.783,8.558H44.73l2.318-2.492L45.96,1.964H22.378
			C19.672,3.771,15.634,6.818,13.783,8.558z"/>
		<path fill="#FFFFFF" d="M4.671,13.558c0.376,0,0.68-0.305,0.68-0.681V9.525L5.068,9.558c-1.704,0-3.086,1.381-3.086,3.085v0.915
			H4.671z"/>
		<rect x="5.351" y="11.021" fill="#FFFFFF" width="45.877" height="1.855"/>
		<path fill="#663C3B" d="M51.228,7.443v5.434c0,0.376,0.304,0.681,0.68,0.681h2.011v-1.915c0-0.003-0.001-0.006-0.001-0.009
			c0.005-0.052,0.016-0.102,0.016-0.154V8.558l-0.789-1.794h-1.236C51.531,6.764,51.228,7.068,51.228,7.443z"/>
		<line fill="none" stroke="#4E6B8D" stroke-miterlimit="10" x1="30.747" y1="1.964" x2="30.747" y2="20.746"/>
		<path fill="none" stroke="#4E6B8D" stroke-miterlimit="10" d="M4.671,13.558c0.376,0,0.68-0.305,0.68-0.681V9.525L5.068,9.558
			c-1.704,0-3.086,1.381-3.086,3.085v0.915H4.671z"/>
		<path fill="none" stroke="#4E6B8D" stroke-miterlimit="10" d="M51.228,7.443v5.434c0,0.376,0.304,0.681,0.68,0.681h2.011v-1.915
			c0-0.003-0.001-0.006-0.001-0.009c0.005-0.052,0.016-0.102,0.016-0.154V8.558l-0.789-1.794h-1.236
			C51.531,6.764,51.228,7.068,51.228,7.443z"/>
		<line fill="none" stroke="#4E6B8D" stroke-miterlimit="10" x1="18.355" y1="15.521" x2="35.48" y2="15.521"/>
	</g>
</g>
</svg>
