<?xml version="1.0" encoding="utf-8"?>
<!-- Generator: Adobe Illustrator 19.2.0, SVG Export Plug-In . SVG Version: 6.00 Build 0)  -->
<svg version="1.1" id="Layer_1" xmlns="http://www.w3.org/2000/svg" xmlns:xlink="http://www.w3.org/1999/xlink" x="0px" y="0px"
	 viewBox="0 0 55.3 24.4" style="enable-background:new 0 0 55.3 24.4;" xml:space="preserve">
<style type="text/css">
	.st0{fill:#AFB1AC;}
	.st1{fill:#405972;}
	.st2{fill:#4E6B8D;}
	.st3{fill:#9DAEC2;}
	.st4{fill:#D3A450;}
	.st5{fill:#F4BB60;}
	.st6{fill:#FFFFFF;}
	.st7{fill:#663C3B;}
</style>
<g>
	<path class="st0" d="M12.6,7.6c0,0,4.4-7.6,14.2-7.6h3.4l0,0c12.1,0,14.5,3.3,16.6,7.6"/>
	<g>
		<ellipse class="st1" cx="27.9" cy="21.1" rx="27.4" ry="3.2"/>
		<rect x="4.3" y="12.4" class="st2" width="47.5" height="6.9"/>
		<circle class="st2" cx="45.7" cy="17.9" r="4"/>
		<circle class="st2" cx="9.5" cy="17.9" r="3.9"/>
		<circle class="st3" cx="45.7" cy="17.9" r="1.7"/>
		<circle class="st3" cx="9.5" cy="17.9" r="1.9"/>
		<g>
			<g>
				<path class="st4" d="M1.6,14.3h0.2c0-0.1,0-0.3,0-0.4v-2.6c0-2,1.6-3.7,3.7-3.7h44.7c2,0,3.7,1.6,3.7,3.7v2.5
					c0.8,0,1.4,0.6,1.4,1.4v2.2c0,0.8-0.6,1.4-1.4,1.4h-3.2v-1.9c-0.5-2.3-2.5-4-4.9-4c-2.8,0-5,2.2-5,5c0,0.3,0,0.6,0.1,0.9H14.5
					c0.1-0.3,0.1-0.6,0.1-0.9c0-2.8-2.2-5-5-5s-5,2.2-5,5c0,0.3,0,0.5,0.1,0.8h-3c-0.9,0-1.6-0.6-1.6-2.2C0,15.1,0.7,14.3,1.6,14.3z
					"/>
				<path class="st4" d="M30.4,7.6c6.9,0,11.1-2.5,11.1-2.5C39.8-0.3,30.4,0,30.4,0s13-0.9,16.2,7.6H30.4"/>
				<path class="st5" d="M4.3,10.7c0,0.4,0.3,0.7,0.7,0.7h45.7c0.4,0,0.7-0.3,0.7-0.7l0,0c0-0.4-0.3-0.7-0.7-0.7H5
					C4.6,10,4.3,10.3,4.3,10.7L4.3,10.7z"/>
			</g>
			<path class="st6" d="M4.3,10.7v1.5c0,0.5-0.4,1-1,1H1.8v-1.9c0-0.6,0.1-1.1,0.4-1.6h1.2C3.9,9.7,4.3,10.1,4.3,10.7z"/>
			<path class="st7" d="M50.2,7.6c2,0,3.7,1.6,3.7,3.7v1.1h-2.7c-0.8,0-1.4-0.6-1.4-1.4V7.6H50.2z"/>
		</g>
	</g>
</g>
<g>
	<g>
		<path class="st2" d="M30.6,8.5c-0.3,0-0.5-0.2-0.5-0.5s0.2-0.5,0.5-0.5c5.5,0,9.3-1.7,10.5-2.3c-1.9-4.5-10.4-4.3-10.4-4.3
			c-0.3,0-0.5-0.2-0.5-0.4c0-0.3,0.2-0.5,0.4-0.5C31,0,40.1-0.2,42,5.3l0.1,0.4l-0.3,0.2C41.6,6,37.4,8.5,30.6,8.5z"/>
	</g>
	<g>
		<path class="st2" d="M46.5,8.5c-0.2,0-0.3-0.1-0.4-0.3C44.1,3.9,41.7,1,30.3,1h-3.4c-9.3,0-13.5,7.2-13.6,7.3
			c-0.1,0.2-0.4,0.3-0.6,0.2c-0.2-0.1-0.3-0.4-0.2-0.6c0-0.1,4.5-7.7,14.4-7.7h3.4c12,0,14.6,3.4,16.8,7.8c0.1,0.2,0,0.5-0.2,0.6
			C46.7,8.5,46.6,8.5,46.5,8.5z"/>
	</g>
	<g>
		<path class="st2" d="M41.3,19.5h-27l0.1-0.5c0.1-0.3,0.1-0.6,0.1-0.8c0-2.5-2-4.5-4.5-4.5s-4.5,2-4.5,4.5c0,0.2,0,0.5,0.1,0.7
			l0.1,0.5H2.1c-1,0-2.1-0.7-2.1-2.7c0-1.4,0.7-2.5,1.8-2.7v-2.6c0-2.3,1.9-4,4-4h44.1c2.3,0,4,1.9,4,4v2.1c0.8,0.2,1.4,0.9,1.4,1.8
			v2.2c0,1-0.8,1.9-1.9,1.9h-3.6v-2.3c-0.5-2.1-2.3-3.5-4.3-3.5c-2.5,0-4.5,2-4.5,4.5c0,0.3,0,0.5,0.1,0.8L41.3,19.5z M15.3,18.6
			h24.9c0-0.2,0-0.3,0-0.4c0-3,2.5-5.4,5.4-5.4c2.6,0,4.7,1.8,5.2,4.2v0.1v1.5h2.8c0.5,0,1-0.4,1-1v-2.2c0-0.5-0.4-1-1-1h-0.5v-2.9
			c0-1.8-1.4-3.2-3.2-3.2H5.9c-1.8,0-3.2,1.4-3.2,3.2v2.8c0,0.1,0,0.1,0,0.2l0.1,0.5H2.2c-0.7,0-1.1,0.7-1.1,1.8
			c0,0.8,0.2,1.7,1.1,1.7h2.5c0-0.1,0-0.2,0-0.4c0-3,2.5-5.4,5.4-5.4s5.4,2.5,5.4,5.4C15.4,18.3,15.4,18.4,15.3,18.6z"/>
	</g>
	<g>
		<path class="st2" d="M30.6,19.5c-0.3,0-0.5-0.2-0.5-0.5V0.5c0-0.3,0.2-0.5,0.5-0.5s0.5,0.2,0.5,0.5V19
			C31,19.3,30.8,19.5,30.6,19.5z"/>
	</g>
	<g>
		<path class="st2" d="M39.3,16.3H16.5c-0.3,0-0.5-0.2-0.5-0.5c0-0.3,0.2-0.5,0.5-0.5h22.9c0.3,0,0.5,0.2,0.5,0.5
			C39.8,16.1,39.6,16.3,39.3,16.3z"/>
	</g>
	<g>
		<path class="st2" d="M3.8,14h-2v-2.3c0-0.6,0.1-1.3,0.4-1.8l0.1-0.3h1.5c0.8,0,1.5,0.7,1.5,1.5v1.5C5.2,13.3,4.6,14,3.8,14z
			 M2.7,13h1.1c0.3,0,0.5-0.2,0.5-0.5V11c0-0.3-0.2-0.5-0.5-0.5H2.9c-0.1,0.4-0.2,0.8-0.2,1.2V13L2.7,13z"/>
	</g>
	<g>
		<path class="st2" d="M54,13.2H51c-1,0-1.9-0.8-1.9-1.9V7.6H50c2.3,0,4,1.9,4,4V13.2L54,13.2z M50,8.5v3c0,0.5,0.4,0.9,1,0.9h2.2
			v-0.7C53.1,10,51.8,8.5,50,8.5z"/>
	</g>
</g>
</svg>
