<?xml version="1.0" encoding="utf-8"?>
<!-- Generator: Adobe Illustrator 16.0.0, SVG Export Plug-In . SVG Version: 6.00 Build 0)  -->
<!DOCTYPE svg PUBLIC "-//W3C//DTD SVG 1.1//EN" "http://www.w3.org/Graphics/SVG/1.1/DTD/svg11.dtd">
<svg version="1.1" id="Layer_1" xmlns="http://www.w3.org/2000/svg" xmlns:xlink="http://www.w3.org/1999/xlink" x="0px" y="0px"
	 width="72.5px" height="34.783px" viewBox="0 0 72.5 34.783" enable-background="new 0 0 72.5 34.783" xml:space="preserve">
<g>
	<path fill="#405972" d="M0.5,31.5c0,1.812,0.725,3.283,1.621,3.283h68.258c0.895,0,1.621-1.471,1.621-3.283l0,0
		c0-1.814-0.727-3.285-1.621-3.285H2.121C1.225,28.215,0.5,29.686,0.5,31.5L0.5,31.5z"/>
	<path fill="#F9B235" d="M0.5,6.932c0-2.868,2.324-5.193,5.193-5.193h61.113C69.674,1.738,72,4.063,72,6.932v17.375
		c0,2.868-2.326,5.193-5.193,5.193H5.693c-2.869,0-5.193-2.325-5.193-5.193V6.932z"/>
	<rect x="0.5" y="18.411" fill="#F7E143" width="71.5" height="2.411"/>
	<path fill="#AFB1AC" d="M68.887,4.209h2.324C71.703,5.002,72,5.93,72,6.932v13.785h-3.113c-0.863,0-1.564-0.7-1.564-1.564V5.773
		C67.322,4.909,68.023,4.209,68.887,4.209z"/>
	<path fill="#AFB1AC" d="M2.791,5.773v6.379c0,0.864-0.701,1.564-1.564,1.564H0.5V6.932c0-1,0.295-1.925,0.785-2.717
		C2.121,4.246,2.791,4.93,2.791,5.773z"/>
	<path fill="#AFB1AC" d="M51.24,15.152c0,0.864,0.699,1.564,1.562,1.564h10.34c0.865,0,1.564-0.7,1.564-1.564V5.773
		c0-0.864-0.699-1.564-1.564-1.564h-10.34c-0.863,0-1.562,0.7-1.562,1.564V15.152z"/>
	<path fill="#AFB1AC" d="M35.824,15.152c0,0.864,0.699,1.564,1.562,1.564h10.34c0.863,0,1.564-0.7,1.564-1.564V5.773
		c0-0.864-0.701-1.564-1.564-1.564h-10.34c-0.863,0-1.562,0.7-1.562,1.564V15.152z"/>
	<path fill="#AFB1AC" d="M20.406,15.152c0,0.864,0.701,1.564,1.564,1.564h10.34c0.863,0,1.564-0.7,1.564-1.564V5.773
		c0-0.864-0.701-1.564-1.564-1.564h-10.34c-0.863,0-1.564,0.7-1.564,1.564V15.152z"/>
	<path fill="#AFB1AC" d="M4.99,15.152c0,0.864,0.701,1.564,1.564,1.564h10.34c0.863,0,1.562-0.7,1.562-1.564V5.773
		c0-0.864-0.699-1.564-1.562-1.564H6.555c-0.863,0-1.564,0.7-1.564,1.564V15.152z"/>
	<path fill="none" stroke="#4E6B8D" stroke-miterlimit="10" d="M58.424,24.375h4.381c1.668,0,3.018,1.352,3.018,3.018V29.5H55.406
		v-2.107C55.406,25.727,56.758,24.375,58.424,24.375z"/>
	<path fill="none" stroke="#4E6B8D" stroke-miterlimit="10" d="M13.008,24.375h4.381c1.668,0,3.018,1.352,3.018,3.018V29.5H9.99
		v-2.107C9.99,25.727,11.342,24.375,13.008,24.375z"/>
	<path fill="#4E6B8D" d="M58.424,24.375h4.381c1.668,0,3.018,1.352,3.018,3.018V29.5H55.406v-2.107
		C55.406,25.727,56.758,24.375,58.424,24.375z"/>
	<path fill="#4E6B8D" d="M13.008,24.375h4.381c1.668,0,3.018,1.352,3.018,3.018V29.5H9.99v-2.107
		C9.99,25.727,11.342,24.375,13.008,24.375z"/>
	<path fill="#663C3B" d="M1.879,19.042c0.504,0,0.912,0.408,0.912,0.912v3.793c0,0.504-0.408,0.912-0.912,0.912H0.535
		C0.527,24.541,0.5,24.428,0.5,24.307v-5.265H1.879z"/>
	<path fill="#FFFFFF" d="M70.324,23.115H72v1.191c0,2.092-1.244,3.884-3.027,4.707v-4.547
		C68.973,23.721,69.578,23.115,70.324,23.115z"/>
	<g>
		<path fill="none" stroke="#4E6B8D" stroke-miterlimit="10" d="M0.5,6.932c0-2.868,2.324-5.193,5.193-5.193h61.113
			C69.674,1.738,72,4.063,72,6.932v17.375c0,2.868-2.326,5.193-5.193,5.193H5.693c-2.869,0-5.193-2.325-5.193-5.193V6.932z"/>
		<path fill="none" stroke="#4E6B8D" stroke-miterlimit="10" d="M68.887,4.209h2.324C71.703,5.002,72,5.93,72,6.932v13.785h-3.113
			c-0.863,0-1.564-0.7-1.564-1.564V5.773C67.322,4.909,68.023,4.209,68.887,4.209z"/>
		<path fill="none" stroke="#4E6B8D" stroke-miterlimit="10" d="M51.24,15.152c0,0.864,0.699,1.564,1.562,1.564h10.34
			c0.865,0,1.564-0.7,1.564-1.564V5.773c0-0.864-0.699-1.564-1.564-1.564h-10.34c-0.863,0-1.562,0.7-1.562,1.564V15.152z"/>
		<path fill="none" stroke="#4E6B8D" stroke-miterlimit="10" d="M35.824,15.152c0,0.864,0.699,1.564,1.562,1.564h10.34
			c0.863,0,1.564-0.7,1.564-1.564V5.773c0-0.864-0.701-1.564-1.564-1.564h-10.34c-0.863,0-1.562,0.7-1.562,1.564V15.152z"/>
		<path fill="none" stroke="#4E6B8D" stroke-miterlimit="10" d="M20.406,15.152c0,0.864,0.701,1.564,1.564,1.564h10.34
			c0.863,0,1.564-0.7,1.564-1.564V5.773c0-0.864-0.701-1.564-1.564-1.564h-10.34c-0.863,0-1.564,0.7-1.564,1.564V15.152z"/>
		<path fill="none" stroke="#4E6B8D" stroke-miterlimit="10" d="M4.99,15.152c0,0.864,0.701,1.564,1.564,1.564h10.34
			c0.863,0,1.562-0.7,1.562-1.564V5.773c0-0.864-0.699-1.564-1.562-1.564H6.555c-0.863,0-1.564,0.7-1.564,1.564V15.152z"/>
		<path fill="none" stroke="#4E6B8D" stroke-miterlimit="10" d="M2.791,5.773v6.379c0,0.864-0.701,1.564-1.564,1.564H0.5V6.932
			c0-1,0.295-1.925,0.785-2.717C2.121,4.246,2.791,4.93,2.791,5.773z"/>
		<path fill="none" stroke="#4E6B8D" stroke-miterlimit="10" d="M1.879,19.042c0.504,0,0.912,0.408,0.912,0.912v3.793
			c0,0.504-0.408,0.912-0.912,0.912H0.535C0.527,24.541,0.5,24.428,0.5,24.307v-5.265H1.879z"/>
		<path fill="none" stroke="#4E6B8D" stroke-miterlimit="10" d="M70.324,23.115H72v1.191c0,2.092-1.244,3.884-3.027,4.707v-4.547
			C68.973,23.721,69.578,23.115,70.324,23.115z"/>
		<line fill="none" stroke="#4E6B8D" stroke-miterlimit="10" x1="64.539" y1="8.966" x2="51.24" y2="8.966"/>
		<line fill="none" stroke="#4E6B8D" stroke-miterlimit="10" x1="49.207" y1="8.966" x2="35.908" y2="8.966"/>
		<line fill="none" stroke="#4E6B8D" stroke-miterlimit="10" x1="33.875" y1="8.966" x2="20.574" y2="8.966"/>
		<line fill="none" stroke="#4E6B8D" stroke-miterlimit="10" x1="18.541" y1="8.966" x2="5.242" y2="8.966"/>
		<path fill="none" stroke="#4E6B8D" stroke-miterlimit="10" d="M57.973,8.966c0.018-0.508,0-4.757,0-4.757"/>
		<path fill="none" stroke="#4E6B8D" stroke-miterlimit="10" d="M42.553,8.966c0.018-0.508,0-4.757,0-4.757"/>
		<path fill="none" stroke="#4E6B8D" stroke-miterlimit="10" d="M27.133,8.966c0.018-0.508,0-4.757,0-4.757"/>
		<path fill="none" stroke="#4E6B8D" stroke-miterlimit="10" d="M11.713,8.966c0.018-0.508,0-4.757,0-4.757"/>
		<rect x="46.865" y="0.5" fill="none" stroke="#4E6B8D" stroke-miterlimit="10" width="16.75" height="1.238"/>
	</g>
	<circle fill="#4E6B8D" cx="60.614" cy="29.5" r="3.925"/>
	<circle fill="#4E6B8D" cx="15.198" cy="29.5" r="3.925"/>
	<circle fill="none" stroke="#4E6B8D" stroke-miterlimit="10" cx="60.614" cy="29.5" r="3.925"/>
	<circle fill="#9DAEC2" cx="60.614" cy="29.5" r="1.675"/>
	<circle fill="none" stroke="#4E6B8D" stroke-miterlimit="10" cx="15.198" cy="29.5" r="3.925"/>
	<circle fill="#9DAEC2" cx="15.198" cy="29.5" r="1.675"/>
</g>
</svg>
