<?xml version="1.0" encoding="utf-8"?>
<!-- Generator: Adobe Illustrator 16.0.0, SVG Export Plug-In . SVG Version: 6.00 Build 0)  -->
<!DOCTYPE svg PUBLIC "-//W3C//DTD SVG 1.1//EN" "http://www.w3.org/Graphics/SVG/1.1/DTD/svg11.dtd">
<svg version="1.1" id="Layer_1" xmlns="http://www.w3.org/2000/svg" xmlns:xlink="http://www.w3.org/1999/xlink" x="0px" y="0px"
	 width="72.5px" height="34.783px" viewBox="0 0 72.5 34.783" enable-background="new 0 0 72.5 34.783" xml:space="preserve">
<g>
	<path fill="#405972" d="M72,31.5c0,1.812-0.725,3.283-1.619,3.283H2.121c-0.895,0-1.621-1.471-1.621-3.283l0,0
		c0-1.814,0.727-3.285,1.621-3.285h68.26C71.275,28.215,72,29.686,72,31.5L72,31.5z"/>
	<path fill="#3881C2" d="M72,6.932c0-2.868-2.324-5.193-5.193-5.193H5.693C2.826,1.738,0.5,4.063,0.5,6.932v17.375
		c0,2.868,2.326,5.193,5.193,5.193h61.113c2.869,0,5.193-2.325,5.193-5.193V6.932z"/>
	<rect x="0.5" y="18.411" fill="#4094D3" width="71.5" height="2.411"/>
	<path fill="#AFB1AC" d="M3.613,4.209H1.289C0.799,5.002,0.5,5.93,0.5,6.932v13.785h3.113c0.863,0,1.564-0.7,1.564-1.564V5.773
		C5.178,4.909,4.477,4.209,3.613,4.209z"/>
	<path fill="#AFB1AC" d="M69.709,5.773v6.379c0,0.864,0.701,1.564,1.564,1.564H72V6.932c0-1-0.295-1.925-0.785-2.717
		C70.379,4.246,69.709,4.93,69.709,5.773z"/>
	<path fill="#AFB1AC" d="M21.26,15.152c0,0.864-0.699,1.564-1.562,1.564H9.357c-0.863,0-1.564-0.7-1.564-1.564V5.773
		c0-0.864,0.701-1.564,1.564-1.564h10.34c0.863,0,1.562,0.7,1.562,1.564V15.152z"/>
	<path fill="#AFB1AC" d="M36.678,15.152c0,0.864-0.701,1.564-1.564,1.564h-10.34c-0.863,0-1.564-0.7-1.564-1.564V5.773
		c0-0.864,0.701-1.564,1.564-1.564h10.34c0.863,0,1.564,0.7,1.564,1.564V15.152z"/>
	<path fill="#AFB1AC" d="M52.094,15.152c0,0.864-0.701,1.564-1.564,1.564h-10.34c-0.863,0-1.562-0.7-1.562-1.564V5.773
		c0-0.864,0.699-1.564,1.562-1.564h10.34c0.863,0,1.564,0.7,1.564,1.564V15.152z"/>
	<path fill="#AFB1AC" d="M67.51,15.152c0,0.864-0.699,1.564-1.562,1.564h-10.34c-0.865,0-1.564-0.7-1.564-1.564V5.773
		c0-0.864,0.699-1.564,1.564-1.564h10.34c0.863,0,1.562,0.7,1.562,1.564V15.152z"/>
	<path fill="none" stroke="#4E6B8D" stroke-miterlimit="10" d="M14.076,24.375H9.695c-1.666,0-3.018,1.352-3.018,3.018V29.5h10.416
		v-2.107C17.094,25.727,15.742,24.375,14.076,24.375z"/>
	<path fill="none" stroke="#4E6B8D" stroke-miterlimit="10" d="M59.492,24.375h-4.381c-1.666,0-3.018,1.352-3.018,3.018V29.5H62.51
		v-2.107C62.51,25.727,61.158,24.375,59.492,24.375z"/>
	<path fill="#4E6B8D" d="M14.076,24.375H9.695c-1.666,0-3.018,1.352-3.018,3.018V29.5h10.416v-2.107
		C17.094,25.727,15.742,24.375,14.076,24.375z"/>
	<path fill="#4E6B8D" d="M59.492,24.375h-4.381c-1.666,0-3.018,1.352-3.018,3.018V29.5H62.51v-2.107
		C62.51,25.727,61.158,24.375,59.492,24.375z"/>
	<path fill="#663C3B" d="M70.621,19.042c-0.504,0-0.912,0.408-0.912,0.912v3.793c0,0.504,0.408,0.912,0.912,0.912h1.344
		C71.973,24.541,72,24.428,72,24.307v-5.265H70.621z"/>
	<g>
		<path fill="none" stroke="#4E6B8D" stroke-miterlimit="10" d="M72,6.932c0-2.868-2.324-5.193-5.193-5.193H5.693
			C2.826,1.738,0.5,4.063,0.5,6.932v17.375c0,2.868,2.326,5.193,5.193,5.193h61.113c2.869,0,5.193-2.325,5.193-5.193V6.932z"/>
		<path fill="none" stroke="#4E6B8D" stroke-miterlimit="10" d="M3.613,4.209H1.289C0.799,5.002,0.5,5.93,0.5,6.932v13.785h3.113
			c0.863,0,1.564-0.7,1.564-1.564V5.773C5.178,4.909,4.477,4.209,3.613,4.209z"/>
		<path fill="none" stroke="#4E6B8D" stroke-miterlimit="10" d="M21.26,15.152c0,0.864-0.699,1.564-1.562,1.564H9.357
			c-0.863,0-1.564-0.7-1.564-1.564V5.773c0-0.864,0.701-1.564,1.564-1.564h10.34c0.863,0,1.562,0.7,1.562,1.564V15.152z"/>
		<path fill="none" stroke="#4E6B8D" stroke-miterlimit="10" d="M36.678,15.152c0,0.864-0.701,1.564-1.564,1.564h-10.34
			c-0.863,0-1.564-0.7-1.564-1.564V5.773c0-0.864,0.701-1.564,1.564-1.564h10.34c0.863,0,1.564,0.7,1.564,1.564V15.152z"/>
		<path fill="none" stroke="#4E6B8D" stroke-miterlimit="10" d="M52.094,15.152c0,0.864-0.701,1.564-1.564,1.564h-10.34
			c-0.863,0-1.562-0.7-1.562-1.564V5.773c0-0.864,0.699-1.564,1.562-1.564h10.34c0.863,0,1.564,0.7,1.564,1.564V15.152z"/>
		<path fill="none" stroke="#4E6B8D" stroke-miterlimit="10" d="M67.51,15.152c0,0.864-0.699,1.564-1.562,1.564h-10.34
			c-0.865,0-1.564-0.7-1.564-1.564V5.773c0-0.864,0.699-1.564,1.564-1.564h10.34c0.863,0,1.562,0.7,1.562,1.564V15.152z"/>
		<path fill="none" stroke="#4E6B8D" stroke-miterlimit="10" d="M69.709,5.773v6.379c0,0.864,0.701,1.564,1.564,1.564H72V6.932
			c0-1-0.295-1.925-0.785-2.717C70.379,4.246,69.709,4.93,69.709,5.773z"/>
		<path fill="none" stroke="#4E6B8D" stroke-miterlimit="10" d="M70.621,19.042c-0.504,0-0.912,0.408-0.912,0.912v3.793
			c0,0.504,0.408,0.912,0.912,0.912h1.344C71.973,24.541,72,24.428,72,24.307v-5.265H70.621z"/>
		<path fill="none" stroke="#4E6B8D" stroke-miterlimit="10" d="M2.176,23.115H0.5v1.191c0,2.092,1.244,3.884,3.027,4.707v-4.547
			C3.527,23.721,2.922,23.115,2.176,23.115z"/>
		<line fill="none" stroke="#4E6B8D" stroke-miterlimit="10" x1="7.961" y1="8.966" x2="21.26" y2="8.966"/>
		<line fill="none" stroke="#4E6B8D" stroke-miterlimit="10" x1="23.293" y1="8.966" x2="36.594" y2="8.966"/>
		<line fill="none" stroke="#4E6B8D" stroke-miterlimit="10" x1="38.627" y1="8.966" x2="51.926" y2="8.966"/>
		<line fill="none" stroke="#4E6B8D" stroke-miterlimit="10" x1="53.959" y1="8.966" x2="67.258" y2="8.966"/>
		<path fill="none" stroke="#4E6B8D" stroke-miterlimit="10" d="M14.527,8.966c-0.018-0.508,0-4.757,0-4.757"/>
		<path fill="none" stroke="#4E6B8D" stroke-miterlimit="10" d="M29.947,8.966c-0.018-0.508,0-4.757,0-4.757"/>
		<path fill="none" stroke="#4E6B8D" stroke-miterlimit="10" d="M45.367,8.966c-0.018-0.508,0-4.757,0-4.757"/>
		<path fill="none" stroke="#4E6B8D" stroke-miterlimit="10" d="M60.787,8.966c-0.018-0.508,0-4.757,0-4.757"/>
		<rect x="8.885" y="0.5" fill="none" stroke="#4E6B8D" stroke-miterlimit="10" width="16.75" height="1.238"/>
	</g>
	<circle fill="#4E6B8D" cx="11.886" cy="29.5" r="3.925"/>
	<circle fill="#4E6B8D" cx="57.302" cy="29.5" r="3.925"/>
	<circle fill="none" stroke="#4E6B8D" stroke-miterlimit="10" cx="11.886" cy="29.5" r="3.925"/>
	<circle fill="#9DAEC2" cx="11.886" cy="29.5" r="1.675"/>
	<circle fill="none" stroke="#4E6B8D" stroke-miterlimit="10" cx="57.302" cy="29.5" r="3.925"/>
	<circle fill="#9DAEC2" cx="57.302" cy="29.5" r="1.675"/>
</g>
</svg>
