<?xml version="1.0" encoding="utf-8"?>
<!-- Generator: Adobe Illustrator 16.0.0, SVG Export Plug-In . SVG Version: 6.00 Build 0)  -->
<!DOCTYPE svg PUBLIC "-//W3C//DTD SVG 1.1//EN" "http://www.w3.org/Graphics/SVG/1.1/DTD/svg11.dtd">
<svg version="1.1" id="Layer_1" xmlns="http://www.w3.org/2000/svg" xmlns:xlink="http://www.w3.org/1999/xlink" x="0px" y="0px"
	 width="55.918px" height="25.93px" viewBox="0 0 55.918 25.93" enable-background="new 0 0 55.918 25.93" xml:space="preserve">
<g>
	<path fill="#405972" d="M0.365,22.646c0,1.812,0.727,3.283,1.621,3.283h52.312c0.896,0,1.62-1.471,1.62-3.283l0,0
		c0-1.814-0.725-3.285-1.62-3.285H1.986C1.092,19.361,0.365,20.832,0.365,22.646L0.365,22.646z"/>
	<path fill="#DBDBDB" d="M1.374,14.381h0.627v-2.738c0-0.003,0.001-0.006,0.001-0.009c-0.004-0.052-0.016-0.102-0.016-0.154V8.558
		l0.702-6.145C3.135,1.316,3.843,0.5,4.9,0.5h39.046l6.188,8.058l0.716,1c1.704,0,3.085,1.381,3.085,3.085v1.738h0.191
		c0.482,0,0.873,0.391,0.873,0.873v4.618c0,0.482-0.391,0.874-0.873,0.874H1.374c-0.482,0-0.874-0.392-0.874-0.874v-4.618
		C0.5,14.771,0.892,14.381,1.374,14.381z"/>
	<path fill="none" stroke="#4E6B8D" stroke-miterlimit="10" d="M1.374,14.381h0.627v-2.738c0-0.003,0.001-0.006,0.001-0.009
		c-0.004-0.052-0.016-0.102-0.016-0.154V8.558l0.702-6.145C3.135,1.316,3.843,0.5,4.9,0.5h39.046l6.188,8.058l0.716,1
		c1.704,0,3.085,1.381,3.085,3.085v1.738h0.191c0.482,0,0.873,0.391,0.873,0.873v4.618c0,0.482-0.391,0.874-0.873,0.874H1.374
		c-0.482,0-0.874-0.392-0.874-0.874v-4.618C0.5,14.771,0.892,14.381,1.374,14.381z"/>
	<g>
		<circle fill="#4E6B8D" cx="45.042" cy="20.646" r="3.925"/>
		<path fill="none" stroke="#4E6B8D" stroke-miterlimit="10" d="M42.852,15.521h4.381c1.667,0,3.018,1.352,3.018,3.018v2.107H39.834
			v-2.107C39.834,16.873,41.186,15.521,42.852,15.521z"/>
		<path fill="#4E6B8D" d="M42.852,15.521h4.381c1.667,0,3.018,1.352,3.018,3.018v2.107H39.834v-2.107
			C39.834,16.873,41.186,15.521,42.852,15.521z"/>
		<circle fill="none" stroke="#4E6B8D" stroke-miterlimit="10" cx="45.042" cy="20.646" r="3.925"/>
		<circle fill="#9DAEC2" cx="45.042" cy="20.646" r="1.675"/>
	</g>
	<g>
		<circle fill="#4E6B8D" cx="12.749" cy="20.646" r="3.925"/>
		<path fill="none" stroke="#4E6B8D" stroke-miterlimit="10" d="M10.559,15.521h4.381c1.667,0,3.018,1.352,3.018,3.018v2.107H7.541
			v-2.107C7.541,16.873,8.893,15.521,10.559,15.521z"/>
		<path fill="#4E6B8D" d="M10.559,15.521h4.381c1.667,0,3.018,1.352,3.018,3.018v2.107H7.541v-2.107
			C7.541,16.873,8.893,15.521,10.559,15.521z"/>
		<circle fill="none" stroke="#4E6B8D" stroke-miterlimit="10" cx="12.749" cy="20.646" r="3.925"/>
		<circle fill="#9DAEC2" cx="12.749" cy="20.646" r="1.675"/>
	</g>
	<path fill="#FFFFFF" d="M51.248,13.558c-0.375,0-0.68-0.305-0.68-0.681V9.525l0.282,0.032c1.704,0,3.085,1.381,3.085,3.085v0.915
		H51.248z"/>
	<rect x="4.691" y="11.021" fill="#FFFFFF" width="45.877" height="1.855"/>
	<path fill="#663C3B" d="M4.691,7.443v5.434c0,0.376-0.305,0.681-0.68,0.681H2.001v-1.915c0-0.003,0.001-0.006,0.001-0.009
		c-0.004-0.052-0.016-0.102-0.016-0.154V8.558l0.205-1.794h1.82C4.387,6.764,4.691,7.068,4.691,7.443z"/>
	<path fill="none" stroke="#4E6B8D" stroke-miterlimit="10" d="M51.248,13.558c-0.375,0-0.68-0.305-0.68-0.681V9.525l0.282,0.032
		c1.704,0,3.085,1.381,3.085,3.085v0.915H51.248z"/>
	<path fill="none" stroke="#4E6B8D" stroke-miterlimit="10" d="M4.691,7.443v5.434c0,0.376-0.305,0.681-0.68,0.681H2.001v-1.915
		c0-0.003,0.001-0.006,0.001-0.009c-0.004-0.052-0.016-0.102-0.016-0.154V8.558l0.205-1.794h1.82
		C4.387,6.764,4.691,7.068,4.691,7.443z"/>
	<line fill="none" stroke="#4E6B8D" stroke-miterlimit="10" x1="37.563" y1="15.521" x2="20.438" y2="15.521"/>
	<polygon fill="#AFB1AC" points="11.344,9.209 11.344,1.964 45.07,1.964 50.135,8.558 50.602,9.209 	"/>
	<polygon fill="none" stroke="#4E6B8D" stroke-miterlimit="10" points="11.344,9.209 11.344,1.964 45.07,1.964 50.135,8.558 
		50.602,9.209 	"/>
	<line fill="none" stroke="#4E6B8D" stroke-miterlimit="10" x1="40.594" y1="0.5" x2="40.594" y2="17.584"/>
	<line fill="none" stroke="#4E6B8D" stroke-miterlimit="10" x1="25.406" y1="0.5" x2="25.406" y2="20.746"/>
</g>
</svg>
