<svg id="artwork" xmlns="http://www.w3.org/2000/svg" width="135" height="40" viewBox="0 0 135 40">
  <rect width="135" height="40" rx="5" ry="5"/>
  <g>
    <g>
      <path d="M30.3,19.78a5.8,5.8,0,0,1,2.76-4.86,5.94,5.94,0,0,0-4.68-2.53c-2-.21-3.87,1.18-4.88,1.18s-2.57-1.16-4.23-1.12A6.23,6.23,0,0,0,14,15.64c-2.27,3.92-.58,9.69,1.6,12.86,1.09,1.55,2.36,3.29,4,3.23s2.23-1,4.19-1,2.51,1,4.21,1,2.84-1.56,3.89-3.13a12.83,12.83,0,0,0,1.78-3.62A5.6,5.6,0,0,1,30.3,19.78Z" fill="#fff"/>
      <path d="M27.1,10.31A5.71,5.71,0,0,0,28.4,6.22a5.81,5.81,0,0,0-3.76,1.94,5.43,5.43,0,0,0-1.34,3.94A4.8,4.8,0,0,0,27.1,10.31Z" fill="#fff"/>
    </g>
    <g>
      <path d="M53.81,31.5H51.54L50.3,27.6H46L44.79,31.5H42.58L46.86,18.2h2.65ZM49.92,26L48.8,22.48q-0.18-.53-0.67-2.51h0q-0.2.85-.63,2.51L46.35,26h3.57Z" fill="#fff"/>
      <path d="M64.83,26.59a5.45,5.45,0,0,1-1.32,3.87,3.87,3.87,0,0,1-2.94,1.26,2.94,2.94,0,0,1-2.72-1.36h0v5.05H55.67V25.07q0-1.54-.08-3.16h1.88l0.12,1.52h0a3.79,3.79,0,0,1,6.07-.38A5.29,5.29,0,0,1,64.83,26.59Zm-2.17.08A4,4,0,0,0,62,24.36a2.18,2.18,0,0,0-1.86-.95,2.22,2.22,0,0,0-1.43.52,2.43,2.43,0,0,0-.84,1.37,2.79,2.79,0,0,0-.1.65v1.6a2.56,2.56,0,0,0,.64,1.77,2.13,2.13,0,0,0,1.67.72A2.18,2.18,0,0,0,62,29.12,4.08,4.08,0,0,0,62.66,26.67Z" fill="#fff"/>
      <path d="M75.87,26.59a5.45,5.45,0,0,1-1.32,3.87,3.86,3.86,0,0,1-2.94,1.26,2.94,2.94,0,0,1-2.72-1.36h0v5.05H66.71V25.07q0-1.54-.08-3.16H68.5l0.12,1.52h0a3.79,3.79,0,0,1,6.07-.38A5.3,5.3,0,0,1,75.87,26.59Zm-2.17.08a4,4,0,0,0-.63-2.31,2.18,2.18,0,0,0-1.86-.95,2.22,2.22,0,0,0-1.43.52,2.42,2.42,0,0,0-.84,1.37,2.85,2.85,0,0,0-.1.65v1.6a2.57,2.57,0,0,0,.64,1.77,2.13,2.13,0,0,0,1.67.72A2.18,2.18,0,0,0,73,29.12,4.08,4.08,0,0,0,73.7,26.67Z" fill="#fff"/>
      <path d="M88.21,27.77A3.55,3.55,0,0,1,87,30.54,5.24,5.24,0,0,1,83.4,31.7,6.35,6.35,0,0,1,80,30.87l0.49-1.78a5.84,5.84,0,0,0,3.08.85,2.91,2.91,0,0,0,1.88-.54,1.78,1.78,0,0,0,.67-1.45,1.85,1.85,0,0,0-.55-1.36,5.14,5.14,0,0,0-1.84-1q-3.5-1.3-3.49-3.82A3.38,3.38,0,0,1,81.42,19a4.83,4.83,0,0,1,3.26-1,6.46,6.46,0,0,1,3,.63l-0.53,1.74a5.24,5.24,0,0,0-2.55-.61,2.58,2.58,0,0,0-1.76.55,1.58,1.58,0,0,0-.53,1.2,1.63,1.63,0,0,0,.61,1.3,6.91,6.91,0,0,0,1.94,1,6.57,6.57,0,0,1,2.53,1.62A3.38,3.38,0,0,1,88.21,27.77Z" fill="#fff"/>
      <path d="M95.26,23.51H92.91v4.66q0,1.78,1.24,1.78a3.79,3.79,0,0,0,.95-0.1l0.06,1.62a4.83,4.83,0,0,1-1.66.24,2.56,2.56,0,0,1-2-.77,3.78,3.78,0,0,1-.71-2.59V23.51h-1.4v-1.6h1.4V20.15l2.09-.63v2.39h2.35v1.6Z" fill="#fff"/>
      <path d="M105.86,26.63a5.26,5.26,0,0,1-1.26,3.63,4.51,4.51,0,0,1-3.52,1.46,4.29,4.29,0,0,1-3.36-1.4,5.1,5.1,0,0,1-1.25-3.53,5.21,5.21,0,0,1,1.29-3.65,4.47,4.47,0,0,1,3.48-1.42,4.38,4.38,0,0,1,3.4,1.4A5,5,0,0,1,105.86,26.63Zm-2.21.07a4.32,4.32,0,0,0-.57-2.28,2.11,2.11,0,0,0-1.91-1.15,2.14,2.14,0,0,0-2,1.15,4.4,4.4,0,0,0-.57,2.32A4.31,4.31,0,0,0,99.21,29a2.18,2.18,0,0,0,3.85,0A4.33,4.33,0,0,0,103.65,26.7Z" fill="#fff"/>
      <path d="M112.79,23.78a3.7,3.7,0,0,0-.67-0.06,2,2,0,0,0-1.74.85,3.19,3.19,0,0,0-.53,1.9v5h-2.13l0-6.57q0-1.66-.08-3h1.86l0.08,1.84h0.06a3.28,3.28,0,0,1,1.07-1.52,2.58,2.58,0,0,1,1.54-.51,3.42,3.42,0,0,1,.53,0v2Z" fill="#fff"/>
      <path d="M122.33,26.25a5,5,0,0,1-.08,1h-6.4a2.78,2.78,0,0,0,.93,2.17,3.17,3.17,0,0,0,2.09.67,7.07,7.07,0,0,0,2.59-.45l0.33,1.48a8,8,0,0,1-3.22.59,4.66,4.66,0,0,1-3.51-1.31,4.85,4.85,0,0,1-1.27-3.52A5.5,5.5,0,0,1,115,23.23a4.09,4.09,0,0,1,3.36-1.54,3.58,3.58,0,0,1,3.14,1.54A5.19,5.19,0,0,1,122.33,26.25Zm-2-.55a2.9,2.9,0,0,0-.41-1.64,1.86,1.86,0,0,0-1.7-.89,2,2,0,0,0-1.7.87,3.18,3.18,0,0,0-.63,1.66h4.44Z" fill="#fff"/>
    </g>
    <g>
      <path d="M49.22,10a3.28,3.28,0,0,1-1.06,2.66,4.21,4.21,0,0,1-2.78.82,12.9,12.9,0,0,1-1.53-.08V7a11.31,11.31,0,0,1,1.81-.14,3.89,3.89,0,0,1,2.59.75A3,3,0,0,1,49.22,10Zm-1.1,0a2.39,2.39,0,0,0-.61-1.76,2.39,2.39,0,0,0-1.77-.61,4.44,4.44,0,0,0-.84.07v4.89a5.53,5.53,0,0,0,.71,0A2.48,2.48,0,0,0,47.46,12,2.68,2.68,0,0,0,48.11,10Z" fill="#fff"/>
      <path d="M55.08,11a2.59,2.59,0,0,1-.62,1.78,2.22,2.22,0,0,1-1.73.72,2.11,2.11,0,0,1-1.65-.69,2.51,2.51,0,0,1-.62-1.74,2.56,2.56,0,0,1,.63-1.79,2.2,2.2,0,0,1,1.71-.7,2.16,2.16,0,0,1,1.67.69A2.49,2.49,0,0,1,55.08,11Zm-1.09,0A2.13,2.13,0,0,0,53.71,10a1,1,0,0,0-.94-0.56,1.05,1.05,0,0,0-1,.56,2.16,2.16,0,0,0-.28,1.14,2.13,2.13,0,0,0,.28,1.12,1.06,1.06,0,0,0,1,.56,1,1,0,0,0,.94-0.57A2.12,2.12,0,0,0,54,11.07Z" fill="#fff"/>
      <path d="M62.93,8.72l-1.47,4.71h-1l-0.61-2a15.32,15.32,0,0,1-.38-1.52h0a11.15,11.15,0,0,1-.38,1.52l-0.65,2h-1L56.1,8.72h1.08L57.71,11q0.19,0.79.32,1.51h0q0.12-.59.39-1.5l0.67-2.25H60l0.64,2.2q0.23,0.81.38,1.55h0a14.83,14.83,0,0,1,.32-1.55l0.57-2.2h1Z" fill="#fff"/>
      <path d="M68.37,13.43h-1v-2.7q0-1.25-.95-1.25a1,1,0,0,0-.76.34,1.22,1.22,0,0,0-.29.81v2.8h-1V10.07q0-.62,0-1.35h0.92l0,0.74h0a1.51,1.51,0,0,1,.54-0.57,1.77,1.77,0,0,1,.95-0.27,1.5,1.5,0,0,1,1.1.43,2.07,2.07,0,0,1,.54,1.56v2.82Z" fill="#fff"/>
      <path d="M71.26,13.43h-1V6.56h1v6.88Z" fill="#fff"/>
      <path d="M77.43,11a2.59,2.59,0,0,1-.62,1.78,2.22,2.22,0,0,1-1.73.72,2.1,2.1,0,0,1-1.65-.69,2.51,2.51,0,0,1-.61-1.74,2.56,2.56,0,0,1,.64-1.79,2.2,2.2,0,0,1,1.71-.7,2.16,2.16,0,0,1,1.67.69A2.49,2.49,0,0,1,77.43,11Zm-1.09,0A2.13,2.13,0,0,0,76.06,10a1,1,0,0,0-.94-0.56,1,1,0,0,0-1,.56,2.16,2.16,0,0,0-.28,1.14,2.13,2.13,0,0,0,.28,1.12,1.06,1.06,0,0,0,1,.56A1,1,0,0,0,76,12.2,2.11,2.11,0,0,0,76.34,11.07Z" fill="#fff"/>
      <path d="M82.5,13.43H81.56l-0.08-.54h0a1.61,1.61,0,0,1-1.38.65A1.42,1.42,0,0,1,79,13.11a1.34,1.34,0,0,1-.37-1,1.46,1.46,0,0,1,.72-1.32,3.75,3.75,0,0,1,2-.45V10.3a0.84,0.84,0,0,0-1-.93,2.19,2.19,0,0,0-1.23.35L79,9a3,3,0,0,1,1.62-.41,1.68,1.68,0,0,1,1.85,1.95v1.74A7.36,7.36,0,0,0,82.5,13.43Zm-1.09-1.62V11.09q-1.73,0-1.73.95a0.71,0.71,0,0,0,.2.55,0.73,0.73,0,0,0,.51.18A1.06,1.06,0,0,0,81,12.56,0.89,0.89,0,0,0,81.41,11.81Z" fill="#fff"/>
      <path d="M88.46,13.43H87.53l0-.76h0a1.57,1.57,0,0,1-1.51.86,1.77,1.77,0,0,1-1.42-.67A2.61,2.61,0,0,1,84,11.14a2.73,2.73,0,0,1,.61-1.85A1.88,1.88,0,0,1,86,8.62a1.41,1.41,0,0,1,1.33.64h0V6.56h1v5.61Q88.42,12.85,88.46,13.43Zm-1.09-2V10.66a1.54,1.54,0,0,0,0-.33A1.19,1.19,0,0,0,87,9.69a1,1,0,0,0-.7-0.26,1.08,1.08,0,0,0-.92.47A2,2,0,0,0,85,11.1a1.86,1.86,0,0,0,.32,1.14,1.08,1.08,0,0,0,.92.47,1,1,0,0,0,.83-0.39A1.29,1.29,0,0,0,87.37,11.45Z" fill="#fff"/>
      <path d="M97.42,11a2.59,2.59,0,0,1-.62,1.78,2.21,2.21,0,0,1-1.73.72,2.11,2.11,0,0,1-1.65-.69,2.51,2.51,0,0,1-.61-1.74,2.56,2.56,0,0,1,.64-1.79,2.2,2.2,0,0,1,1.71-.7,2.15,2.15,0,0,1,1.67.69A2.49,2.49,0,0,1,97.42,11Zm-1.09,0A2.13,2.13,0,0,0,96.05,10a1,1,0,0,0-.94-0.56,1.05,1.05,0,0,0-1,.56,2.16,2.16,0,0,0-.28,1.14,2.13,2.13,0,0,0,.28,1.12,1.07,1.07,0,0,0,1.89,0A2.13,2.13,0,0,0,96.33,11.07Z" fill="#fff"/>
      <path d="M103.05,13.43h-1v-2.7q0-1.25-1-1.25a0.94,0.94,0,0,0-.76.34,1.21,1.21,0,0,0-.29.81v2.8H99V10.07q0-.62,0-1.35h0.92l0,0.74h0a1.53,1.53,0,0,1,.54-0.57,1.77,1.77,0,0,1,1-.27,1.5,1.5,0,0,1,1.1.43,2.07,2.07,0,0,1,.54,1.56v2.82Z" fill="#fff"/>
      <path d="M110.11,9.5H109v2.29c0,0.58.21,0.87,0.61,0.87a1.85,1.85,0,0,0,.47,0l0,0.8a2.35,2.35,0,0,1-.81.12,1.25,1.25,0,0,1-1-.38,1.85,1.85,0,0,1-.35-1.27V9.5h-0.69V8.72h0.69V7.86l1-.31V8.72h1.15V9.5h0Z" fill="#fff"/>
      <path d="M115.65,13.43h-1V10.75q0-1.27-.95-1.27a1,1,0,0,0-1,.73,1.32,1.32,0,0,0,0,.38v2.84h-1V6.56h1V9.4h0A1.58,1.58,0,0,1,114,8.62a1.46,1.46,0,0,1,1.08.43,2.15,2.15,0,0,1,.53,1.58v2.8Z" fill="#fff"/>
      <path d="M121.38,10.85a2.53,2.53,0,0,1,0,.48h-3.14a1.37,1.37,0,0,0,.46,1.07,1.56,1.56,0,0,0,1,.33A3.47,3.47,0,0,0,121,12.5l0.16,0.73a4,4,0,0,1-1.58.29,2.28,2.28,0,0,1-1.72-.64,2.38,2.38,0,0,1-.62-1.73,2.7,2.7,0,0,1,.58-1.77,2,2,0,0,1,1.65-.76,1.75,1.75,0,0,1,1.54.76A2.52,2.52,0,0,1,121.38,10.85Zm-1-.27a1.41,1.41,0,0,0-.2-0.81,0.92,0.92,0,0,0-.83-0.44,1,1,0,0,0-.83.43,1.59,1.59,0,0,0-.31.81h2.18Z" fill="#fff"/>
    </g>
  </g>
</svg>
