<?xml version="1.0" encoding="utf-8"?>
<!-- Generator: Adobe Illustrator 16.0.0, SVG Export Plug-In . SVG Version: 6.00 Build 0)  -->
<!DOCTYPE svg PUBLIC "-//W3C//DTD SVG 1.1//EN" "http://www.w3.org/Graphics/SVG/1.1/DTD/svg11.dtd">
<svg version="1.1" id="Layer_1" xmlns="http://www.w3.org/2000/svg" xmlns:xlink="http://www.w3.org/1999/xlink" x="0px" y="0px"
	 width="124px" height="35px" viewBox="0 0 124 35" enable-background="new 0 0 124 35" xml:space="preserve">
<g>
	<path fill="#FFFFFF" d="M60.491,0.485c0.57-0.087,1.249-0.151,1.993-0.151c1.347,0,2.305,0.312,2.94,0.905
		c0.646,0.592,1.023,1.433,1.023,2.607c0,1.185-0.366,2.154-1.044,2.822c-0.679,0.679-1.8,1.045-3.212,1.045
		c-0.668,0-1.228-0.032-1.701-0.086V0.485z M61.427,6.906c0.237,0.043,0.582,0.054,0.948,0.054c2.005,0,3.093-1.121,3.093-3.082
		c0.011-1.713-0.96-2.801-2.941-2.801c-0.484,0-0.852,0.043-1.1,0.097V6.906z"/>
	<path fill="#FFFFFF" d="M68.203,5.214c0.022,1.282,0.841,1.81,1.789,1.81c0.679,0,1.088-0.118,1.443-0.269l0.162,0.679
		c-0.334,0.151-0.905,0.323-1.735,0.323c-1.604,0-2.563-1.056-2.563-2.629s0.927-2.812,2.446-2.812c1.701,0,2.153,1.498,2.153,2.456
		c0,0.194-0.021,0.345-0.031,0.442H68.203z M70.983,4.536c0.011-0.604-0.248-1.541-1.315-1.541c-0.958,0-1.379,0.884-1.454,1.541
		H70.983z"/>
	<path fill="#FFFFFF" d="M73.439,2.435l1.023,2.931c0.172,0.474,0.312,0.905,0.42,1.335h0.032c0.119-0.43,0.27-0.861,0.441-1.335
		l1.013-2.931h0.991l-2.047,5.214h-0.905l-1.981-5.214H73.439z"/>
	<path fill="#FFFFFF" d="M78.673,5.214c0.021,1.282,0.84,1.81,1.788,1.81c0.68,0,1.088-0.118,1.443-0.269l0.163,0.679
		c-0.335,0.151-0.906,0.323-1.735,0.323c-1.604,0-2.564-1.056-2.564-2.629s0.927-2.812,2.446-2.812c1.701,0,2.154,1.498,2.154,2.456
		c0,0.194-0.021,0.345-0.032,0.442H78.673z M81.453,4.536c0.011-0.604-0.247-1.541-1.314-1.541c-0.958,0-1.379,0.884-1.454,1.541
		H81.453z"/>
	<path fill="#FFFFFF" d="M83.542,0h0.947v7.649h-0.947V0z"/>
	<path fill="#FFFFFF" d="M90.803,4.999c0,1.928-1.336,2.769-2.597,2.769c-1.41,0-2.499-1.034-2.499-2.683
		c0-1.745,1.142-2.769,2.585-2.769C89.791,2.316,90.803,3.404,90.803,4.999z M86.667,5.053c0,1.142,0.657,2.004,1.584,2.004
		c0.904,0,1.583-0.851,1.583-2.026c0-0.883-0.441-2.003-1.562-2.003C87.151,3.027,86.667,4.062,86.667,5.053z"/>
	<path fill="#FFFFFF" d="M91.999,4.137c0-0.668-0.021-1.207-0.043-1.703h0.852l0.042,0.895h0.022
		c0.388-0.636,1.001-1.013,1.853-1.013c1.26,0,2.208,1.066,2.208,2.65c0,1.874-1.142,2.801-2.369,2.801
		c-0.69,0-1.293-0.301-1.605-0.819h-0.022v2.833h-0.937V4.137z M92.935,5.527c0,0.14,0.022,0.27,0.044,0.388
		c0.172,0.657,0.743,1.109,1.422,1.109c1.002,0,1.583-0.818,1.583-2.014c0-1.045-0.549-1.939-1.551-1.939
		c-0.646,0-1.25,0.463-1.434,1.174c-0.031,0.119-0.064,0.259-0.064,0.388V5.527z"/>
	<path fill="#FFFFFF" d="M98.655,5.214c0.021,1.282,0.841,1.81,1.789,1.81c0.679,0,1.088-0.118,1.444-0.269l0.161,0.679
		c-0.335,0.151-0.905,0.323-1.735,0.323c-1.604,0-2.563-1.056-2.563-2.629s0.926-2.812,2.445-2.812c1.702,0,2.155,1.498,2.155,2.456
		c0,0.194-0.021,0.345-0.032,0.442H98.655z M101.434,4.536c0.012-0.604-0.247-1.541-1.313-1.541c-0.959,0-1.379,0.884-1.455,1.541
		H101.434z"/>
	<path fill="#FFFFFF" d="M108.027,0v6.303c0,0.463,0.011,0.991,0.044,1.346h-0.852l-0.043-0.905h-0.021
		c-0.291,0.582-0.926,1.023-1.777,1.023c-1.262,0-2.23-1.067-2.23-2.65c-0.011-1.734,1.066-2.801,2.338-2.801
		c0.797,0,1.336,0.377,1.573,0.797h0.021V0H108.027z M107.079,4.557c0-0.119-0.01-0.28-0.042-0.399
		c-0.141-0.603-0.657-1.099-1.368-1.099c-0.98,0-1.562,0.862-1.562,2.015c0,1.056,0.517,1.929,1.54,1.929
		c0.636,0,1.218-0.42,1.391-1.131c0.032-0.129,0.042-0.258,0.042-0.41V4.557z"/>
	<path fill="#FFFFFF" d="M111.84,7.649c0.021-0.355,0.042-0.883,0.042-1.346V0h0.938v3.275h0.022
		c0.333-0.582,0.938-0.958,1.777-0.958c1.293,0,2.208,1.077,2.197,2.661c0,1.863-1.174,2.79-2.337,2.79
		c-0.754,0-1.358-0.291-1.746-0.98h-0.031l-0.044,0.862H111.84z M112.82,5.559c0,0.118,0.022,0.237,0.044,0.344
		c0.184,0.658,0.732,1.11,1.422,1.11c0.991,0,1.583-0.808,1.583-2.004c0-1.045-0.538-1.939-1.551-1.939
		c-0.646,0-1.249,0.441-1.443,1.164c-0.021,0.107-0.055,0.236-0.055,0.387V5.559z"/>
	<path fill="#FFFFFF" d="M118.281,2.435l1.143,3.082c0.119,0.344,0.248,0.754,0.334,1.066h0.021
		c0.097-0.312,0.205-0.711,0.335-1.088l1.034-3.06h1.002l-1.423,3.717c-0.679,1.789-1.142,2.705-1.789,3.265
		c-0.463,0.409-0.926,0.571-1.162,0.614l-0.237-0.797c0.237-0.076,0.549-0.227,0.83-0.463c0.258-0.205,0.581-0.571,0.796-1.056
		c0.044-0.097,0.076-0.172,0.076-0.226c0-0.054-0.022-0.129-0.064-0.248l-1.929-4.805H118.281z"/>
</g>
<path fill="#FFFFFF" d="M5.958,25.371c-0.482,0-0.846-0.004-1.086-0.018L3.73,28.576c-0.399,0.084-0.976,0.129-1.735,0.129
	c-0.761,0-1.373-0.081-1.839-0.239L0,28.292l5.751-14.611c0.622-0.087,1.39-0.13,2.305-0.13c0.917,0,1.665,0.049,2.254,0.152
	l5.593,14.631c-0.569,0.276-1.251,0.416-2.045,0.416s-1.365-0.13-1.709-0.381c-0.346-0.255-0.63-0.731-0.855-1.427l-0.544-1.589
	c-0.241,0.014-0.614,0.018-1.113,0.018H5.958z M5.776,22.759l1.089-0.022h1.994c0.087,0,0.241,0.004,0.466,0.012
	c0.225,0.01,0.396,0.01,0.519,0.01l-1.969-6.008H7.746c-0.156,0.711-0.571,2.049-1.242,4.006L5.776,22.759z"/>
<path fill="#FFFFFF" d="M16.603,27.246c0.053-0.465,0.225-0.926,0.518-1.382c0.294-0.456,0.639-0.825,1.035-1.1
	c1.883,0.958,3.627,1.438,5.236,1.438c0.741,0,1.305-0.15,1.693-0.448c0.39-0.298,0.585-0.656,0.585-1.08
	c0-0.723-0.58-1.305-1.734-1.74l-3.058-1.086c-2.453-0.902-3.678-2.229-3.678-3.986c0-1.319,0.595-2.405,1.786-3.245
	c1.193-0.843,2.759-1.264,4.703-1.264c1.942,0,3.862,0.415,5.763,1.244c-0.087,0.997-0.536,1.833-1.348,2.502
	c-1.761-0.711-3.313-1.068-4.661-1.068c-0.709,0-1.251,0.142-1.632,0.425c-0.379,0.282-0.571,0.604-0.571,0.969
	c0,0.582,0.536,1.066,1.605,1.459l3.109,1.088c1.243,0.45,2.205,1.043,2.888,1.773c0.683,0.735,1.024,1.566,1.024,2.494
	c0,1.379-0.583,2.497-1.749,3.352c-1.166,0.857-2.837,1.285-5.013,1.285c-1.07,0-2.19-0.144-3.355-0.435
	C18.584,28.154,17.536,27.756,16.603,27.246z"/>
<path fill="#FFFFFF" d="M39.137,16.425l0.026,1.611v10.517c-0.534,0.089-1.196,0.13-1.981,0.13s-1.445-0.041-1.979-0.13V18.036
	l0.024-1.611h-0.024l-1.608,0.022h-2.743c-0.089-0.421-0.132-0.884-0.132-1.384s0.043-0.96,0.132-1.382h12.691
	c0.138,0.377,0.207,0.819,0.207,1.328c0,0.507-0.165,0.875-0.491,1.1c-0.33,0.225-0.857,0.339-1.582,0.339h-0.907l-1.606-0.022
	H39.137z"/>
<path fill="#FFFFFF" d="M51.855,25.764l3.522-12.083c0.448-0.087,1.023-0.13,1.723-0.13c0.698,0,1.298,0.073,1.802,0.217l0.18,0.196
	l-4.893,14.588c-0.936,0.089-1.876,0.13-2.826,0.13c-0.949,0-1.636-0.103-2.059-0.306c-0.424-0.201-0.738-0.61-0.944-1.22
	l-4.377-13.168c0.931-0.338,1.708-0.506,2.331-0.506c0.621,0,1.097,0.131,1.425,0.395c0.325,0.264,0.585,0.681,0.776,1.26
	l2.072,6.424c0.345,1.018,0.683,2.327,1.009,3.921C51.629,25.669,51.716,25.764,51.855,25.764z"/>
<path fill="#FFFFFF" d="M61.388,28.553V13.681c0.515-0.087,1.179-0.13,1.98-0.13c0.803,0,1.463,0.043,1.98,0.13v14.872
	c-0.518,0.089-1.178,0.13-1.98,0.13C62.567,28.683,61.903,28.642,61.388,28.553z"/>
<path fill="#FFFFFF" d="M67.888,27.246c0.052-0.465,0.224-0.926,0.518-1.382s0.639-0.825,1.037-1.1
	c1.883,0.958,3.627,1.438,5.231,1.438c0.742,0,1.307-0.15,1.697-0.448c0.389-0.298,0.581-0.656,0.581-1.08
	c0-0.723-0.577-1.305-1.734-1.74l-3.058-1.086c-2.449-0.902-3.675-2.229-3.675-3.986c0-1.319,0.594-2.405,1.786-3.245
	c1.191-0.843,2.757-1.264,4.698-1.264c1.944,0,3.863,0.415,5.766,1.244c-0.087,0.997-0.536,1.833-1.346,2.502
	c-1.763-0.711-3.316-1.068-4.666-1.068c-0.705,0-1.249,0.142-1.629,0.425c-0.382,0.282-0.57,0.604-0.57,0.969
	c0,0.582,0.534,1.066,1.606,1.459l3.108,1.088c1.243,0.45,2.205,1.043,2.886,1.773c0.682,0.735,1.024,1.566,1.024,2.494
	c0,1.379-0.582,2.497-1.75,3.352c-1.165,0.857-2.835,1.285-5.012,1.285c-1.071,0-2.188-0.144-3.352-0.435
	C69.87,28.154,68.822,27.756,67.888,27.246z"/>
<path fill="#FFFFFF" d="M83.948,28.553V13.681c0.519-0.087,1.18-0.13,1.979-0.13c0.805,0,1.463,0.043,1.982,0.13v14.872
	c-0.52,0.089-1.178,0.13-1.982,0.13C85.127,28.683,84.466,28.642,83.948,28.553z"/>
<path fill="#FFFFFF" d="M123.168,13.551l0.184,0.13v14.806c-0.656,0.132-1.429,0.196-2.321,0.196c-0.887,0-1.679-0.041-2.369-0.13
	l-4.299-7.97c-0.725-1.45-1.218-2.476-1.476-3.072l-0.105,0.024c0.209,2.061,0.312,4.172,0.312,6.334v4.683
	c-0.52,0.089-1.135,0.13-1.854,0.13c-0.717,0-1.324-0.041-1.827-0.13V13.746c0.622-0.132,1.38-0.195,2.27-0.195
	s1.679,0.043,2.368,0.13l4.198,7.948l1.63,3.29l0.105-0.025c-0.208-2.002-0.312-4.1-0.312-6.292v-3.048
	c0-0.727,0.174-1.242,0.521-1.548c0.344-0.302,0.904-0.454,1.683-0.454H123.168z"/>
<path fill="#FC7A03" d="M103.767,15.583c-0.005-0.005-0.011-0.01-0.016-0.014c-0.003-0.006-0.008-0.011-0.015-0.015l-0.199-0.182
	l-0.004,0.008c-2.084-1.836-4.176-2.532-6.272-2.069c-1.554,0.355-2.967,1.228-4.249,2.62l-5.103,5.546l5.637,5.184
	c2.154,1.982,4.32,2.74,6.49,2.257c1.554-0.354,2.967-1.23,4.248-2.62l5.104-5.546L103.767,15.583z M102.412,24.596
	c-1.563,1.698-3.603,1.39-6.115-0.92c-2.514-2.314-2.988-4.318-1.426-6.019s3.603-1.392,6.113,0.92
	C103.499,20.891,103.976,22.897,102.412,24.596z"/>
<g>
	<path fill="#FFFFFF" d="M0.416,31.734c0.124-0.006,0.269-0.011,0.435-0.014c0.166-0.003,0.354-0.005,0.566-0.005
		c0.434,0,0.769,0.103,1.004,0.308c0.235,0.206,0.353,0.504,0.353,0.897v0.754c0,0.375-0.116,0.662-0.347,0.863
		c-0.232,0.201-0.578,0.301-1.037,0.301c-0.187,0-0.353-0.002-0.498-0.006c-0.146-0.005-0.305-0.012-0.476-0.021V31.734z
		 M0.881,34.476c0.211,0.019,0.381,0.028,0.509,0.028c0.273,0,0.495-0.067,0.665-0.201c0.169-0.133,0.254-0.332,0.254-0.596v-0.814
		c0-0.285-0.082-0.498-0.246-0.637c-0.164-0.139-0.389-0.208-0.673-0.208c-0.088,0-0.173,0-0.258,0.002
		c-0.083,0.002-0.167,0.004-0.251,0.007V34.476z"/>
	<path fill="#FFFFFF" d="M6.714,34.784v-3.013h1.888v0.354H7.18v0.952h1.313v0.35H7.18v1.002h1.423v0.354H6.714z"/>
	<path fill="#FFFFFF" d="M13.888,34.784h-0.613l-1.062-3.013h0.493l0.876,2.636l0.875-2.636h0.492L13.888,34.784z"/>
	<path fill="#FFFFFF" d="M18.617,34.784v-3.013h1.888v0.354h-1.423v0.952h1.313v0.35h-1.313v1.002h1.423v0.354H18.617z"/>
	<path fill="#FFFFFF" d="M24.444,34.784v-3.013h0.465v2.668h1.423v0.345H24.444z"/>
	<path fill="#FFFFFF" d="M29.808,32.705c0-0.15,0.023-0.287,0.069-0.41c0.045-0.122,0.115-0.227,0.21-0.312
		c0.095-0.086,0.218-0.152,0.37-0.198c0.151-0.046,0.333-0.069,0.544-0.069c0.212,0,0.394,0.023,0.544,0.069
		c0.152,0.046,0.275,0.112,0.37,0.198c0.095,0.085,0.165,0.19,0.21,0.312c0.045,0.123,0.069,0.26,0.069,0.41v1.146
		c0,0.153-0.023,0.29-0.069,0.412c-0.045,0.121-0.116,0.225-0.21,0.31c-0.095,0.086-0.218,0.152-0.37,0.198
		c-0.15,0.046-0.333,0.069-0.544,0.069c-0.211,0-0.393-0.023-0.544-0.069c-0.152-0.046-0.275-0.112-0.37-0.198
		c-0.095-0.085-0.165-0.189-0.21-0.31c-0.046-0.122-0.069-0.258-0.069-0.412V32.705z M30.273,33.892
		c0,0.197,0.061,0.346,0.183,0.449c0.122,0.103,0.304,0.154,0.544,0.154c0.241,0,0.423-0.052,0.544-0.154
		c0.123-0.103,0.184-0.252,0.184-0.449v-1.229c0-0.193-0.06-0.341-0.181-0.446c-0.12-0.104-0.302-0.156-0.547-0.156
		c-0.244,0-0.426,0.051-0.547,0.154c-0.12,0.103-0.18,0.251-0.18,0.444V33.892z"/>
	<path fill="#FFFFFF" d="M36.161,34.784v-3.045c0.139-0.006,0.282-0.011,0.43-0.016c0.147-0.004,0.32-0.007,0.517-0.007
		c0.438,0,0.758,0.073,0.96,0.221c0.202,0.147,0.304,0.353,0.304,0.617v0.11c0,0.279-0.099,0.499-0.295,0.658
		c-0.198,0.16-0.506,0.239-0.925,0.239c-0.081,0-0.162-0.002-0.244-0.007c-0.082-0.005-0.177-0.015-0.282-0.03v1.261H36.161z
		 M36.626,33.188c0.124,0.016,0.222,0.026,0.295,0.03c0.073,0.005,0.142,0.007,0.208,0.007c0.518,0,0.777-0.193,0.777-0.579v-0.078
		c0-0.172-0.064-0.302-0.191-0.392c-0.128-0.089-0.334-0.133-0.618-0.133c-0.121,0-0.215,0-0.282,0.002
		c-0.068,0.001-0.13,0.004-0.188,0.007V33.188z"/>
	<path fill="#FFFFFF" d="M42.093,34.784v-3.013h0.465v3.013H42.093z"/>
	<path fill="#FFFFFF" d="M48.194,34.784l-1.182-2.544v2.544h-0.46v-3.013h0.744l1.161,2.543v-2.543h0.46v3.013H48.194z"/>
	<path fill="#FFFFFF" d="M54.049,34.839c-0.216,0-0.397-0.019-0.547-0.057c-0.149-0.039-0.271-0.097-0.361-0.175
		s-0.156-0.176-0.197-0.292c-0.039-0.117-0.06-0.251-0.06-0.405v-1.265c0-0.325,0.091-0.562,0.273-0.709
		c0.183-0.147,0.479-0.221,0.892-0.221c0.073,0,0.153,0.003,0.239,0.01c0.085,0.006,0.17,0.014,0.254,0.024
		c0.084,0.011,0.164,0.023,0.243,0.035c0.078,0.012,0.149,0.023,0.211,0.033l-0.012,0.335c-0.05-0.009-0.113-0.019-0.186-0.03
		c-0.073-0.011-0.151-0.021-0.235-0.032c-0.083-0.011-0.17-0.02-0.261-0.028c-0.089-0.007-0.174-0.011-0.254-0.011
		c-0.255,0-0.436,0.043-0.542,0.129c-0.105,0.085-0.158,0.227-0.158,0.423v1.334c0,0.197,0.053,0.339,0.158,0.426
		c0.106,0.087,0.287,0.131,0.542,0.131c0.091,0,0.192-0.006,0.304-0.019c0.111-0.012,0.225-0.027,0.337-0.046v-1.016h-0.684v-0.368
		h1.148v1.624c-0.153,0.04-0.327,0.078-0.522,0.115C54.437,34.821,54.243,34.839,54.049,34.839z"/>
	<path fill="#FFFFFF" d="M64.431,32.125v0.952h1.072v0.35h-1.072v1.357h-0.466v-3.013h1.889v0.354H64.431z"/>
	<path fill="#FFFFFF" d="M69.547,32.705c0-0.15,0.023-0.287,0.068-0.41c0.046-0.122,0.116-0.227,0.211-0.312
		c0.095-0.086,0.217-0.152,0.369-0.198c0.151-0.046,0.333-0.069,0.544-0.069c0.212,0,0.394,0.023,0.545,0.069
		c0.15,0.046,0.274,0.112,0.369,0.198c0.095,0.085,0.165,0.19,0.211,0.312c0.045,0.123,0.068,0.26,0.068,0.41v1.146
		c0,0.153-0.023,0.29-0.068,0.412c-0.046,0.121-0.116,0.225-0.211,0.31c-0.095,0.086-0.219,0.152-0.369,0.198
		c-0.151,0.046-0.333,0.069-0.545,0.069c-0.211,0-0.393-0.023-0.544-0.069c-0.152-0.046-0.274-0.112-0.369-0.198
		c-0.095-0.085-0.165-0.189-0.211-0.31c-0.045-0.122-0.068-0.258-0.068-0.412V32.705z M70.012,33.892
		c0,0.197,0.061,0.346,0.184,0.449c0.122,0.103,0.304,0.154,0.544,0.154c0.241,0,0.422-0.052,0.545-0.154
		c0.122-0.103,0.184-0.252,0.184-0.449v-1.229c0-0.193-0.06-0.341-0.181-0.446s-0.303-0.156-0.548-0.156
		c-0.243,0-0.426,0.051-0.547,0.154c-0.12,0.103-0.181,0.251-0.181,0.444V33.892z"/>
	<path fill="#FFFFFF" d="M76.847,31.716c0.223,0,0.414,0.019,0.572,0.058c0.158,0.039,0.288,0.092,0.389,0.161
		c0.1,0.069,0.174,0.153,0.221,0.251c0.048,0.098,0.071,0.208,0.071,0.331v0.119c0,0.083-0.015,0.164-0.046,0.244
		c-0.031,0.08-0.075,0.155-0.132,0.226c-0.057,0.07-0.125,0.133-0.207,0.188c-0.083,0.056-0.175,0.099-0.276,0.129l0.914,1.362
		h-0.521l-0.864-1.289h-0.34c-0.077,0-0.164-0.002-0.263-0.008v1.297H75.9v-3.05c0.154-0.006,0.311-0.011,0.472-0.014
		C76.532,31.717,76.691,31.716,76.847,31.716z M76.836,32.042c-0.062,0-0.138,0-0.227,0.002c-0.091,0.001-0.172,0.004-0.244,0.007
		v1.086c0.124,0.006,0.221,0.01,0.29,0.014c0.069,0.003,0.136,0.004,0.197,0.004c0.28,0,0.481-0.047,0.602-0.14
		c0.12-0.094,0.181-0.223,0.181-0.389V32.54c0-0.166-0.062-0.291-0.184-0.373C77.33,32.083,77.125,32.042,76.836,32.042z"/>
	<path fill="#FFFFFF" d="M88.142,33.146c0.121,0.034,0.224,0.073,0.31,0.117c0.086,0.045,0.154,0.099,0.207,0.161
		c0.054,0.063,0.091,0.136,0.115,0.219c0.024,0.082,0.036,0.181,0.036,0.294v0.088c0,0.131-0.021,0.249-0.063,0.349
		c-0.042,0.101-0.11,0.186-0.208,0.256c-0.097,0.068-0.222,0.121-0.374,0.157c-0.154,0.035-0.34,0.052-0.559,0.052
		c-0.088,0-0.202-0.007-0.345-0.023s-0.294-0.038-0.455-0.069l0.012-0.354c0.149,0.031,0.293,0.054,0.43,0.069
		c0.137,0.015,0.253,0.023,0.348,0.023c0.28,0,0.476-0.036,0.586-0.109c0.108-0.071,0.163-0.178,0.163-0.319v-0.151
		c0-0.108-0.027-0.19-0.081-0.247c-0.056-0.057-0.156-0.105-0.302-0.145l-0.563-0.157c-0.128-0.034-0.234-0.072-0.32-0.115
		c-0.086-0.042-0.154-0.095-0.205-0.157c-0.052-0.061-0.088-0.133-0.112-0.216c-0.023-0.083-0.036-0.181-0.036-0.295v-0.051
		c0-0.26,0.083-0.46,0.25-0.6c0.166-0.14,0.438-0.209,0.818-0.209c0.095,0,0.211,0.007,0.353,0.021
		c0.14,0.014,0.278,0.032,0.413,0.053l-0.011,0.346c-0.128-0.022-0.259-0.039-0.392-0.053c-0.134-0.014-0.254-0.021-0.363-0.021
		c-0.22,0-0.374,0.036-0.466,0.108c-0.091,0.073-0.137,0.179-0.137,0.32v0.12c0,0.055,0.005,0.102,0.017,0.14
		c0.011,0.039,0.033,0.073,0.065,0.103c0.033,0.031,0.079,0.058,0.137,0.081s0.133,0.047,0.224,0.071L88.142,33.146z"/>
	<path fill="#FFFFFF" d="M94.889,31.771v2.06c0,0.325-0.097,0.575-0.29,0.748s-0.484,0.26-0.875,0.26
		c-0.38,0-0.669-0.083-0.867-0.248c-0.199-0.166-0.299-0.416-0.299-0.75v-2.07h0.465v2.12c0,0.202,0.062,0.354,0.184,0.453
		c0.122,0.1,0.295,0.15,0.518,0.15c0.222,0,0.395-0.05,0.517-0.15c0.123-0.1,0.184-0.251,0.184-0.453v-2.12H94.889z"/>
	<path fill="#FFFFFF" d="M100.023,31.716c0.123,0,0.25,0.008,0.38,0.025c0.129,0.017,0.254,0.033,0.374,0.048l-0.01,0.346
		c-0.092-0.016-0.205-0.031-0.34-0.048s-0.271-0.025-0.404-0.025c-0.253,0-0.433,0.042-0.539,0.126
		c-0.108,0.084-0.162,0.228-0.162,0.43v1.316c0,0.2,0.054,0.341,0.162,0.425c0.106,0.084,0.286,0.127,0.539,0.127
		c0.134,0,0.27-0.009,0.404-0.025c0.135-0.017,0.248-0.033,0.34-0.048l0.01,0.354c-0.12,0.016-0.245,0.031-0.374,0.049
		c-0.13,0.017-0.257,0.025-0.38,0.025c-0.216,0-0.398-0.019-0.548-0.057c-0.15-0.039-0.271-0.097-0.361-0.175
		c-0.092-0.078-0.157-0.176-0.196-0.292c-0.041-0.117-0.062-0.251-0.062-0.405v-1.265c0-0.313,0.088-0.546,0.263-0.7
		C99.294,31.792,99.595,31.716,100.023,31.716z"/>
	<path fill="#FFFFFF" d="M105.691,31.716c0.125,0,0.252,0.008,0.381,0.025c0.13,0.017,0.255,0.033,0.375,0.048l-0.011,0.346
		c-0.092-0.016-0.204-0.031-0.339-0.048s-0.271-0.025-0.406-0.025c-0.251,0-0.431,0.042-0.538,0.126
		c-0.108,0.084-0.161,0.228-0.161,0.43v1.316c0,0.2,0.053,0.341,0.161,0.425c0.107,0.084,0.287,0.127,0.538,0.127
		c0.136,0,0.271-0.009,0.406-0.025c0.135-0.017,0.247-0.033,0.339-0.048l0.011,0.354c-0.12,0.016-0.245,0.031-0.375,0.049
		c-0.129,0.017-0.256,0.025-0.381,0.025c-0.214,0-0.396-0.019-0.547-0.057c-0.149-0.039-0.27-0.097-0.361-0.175
		c-0.091-0.078-0.156-0.176-0.196-0.292c-0.04-0.117-0.061-0.251-0.061-0.405v-1.265c0-0.313,0.088-0.546,0.263-0.7
		S105.265,31.716,105.691,31.716z"/>
	<path fill="#FFFFFF" d="M110.332,34.784v-3.013h1.889v0.354h-1.423v0.952h1.313v0.35h-1.313v1.002h1.423v0.354H110.332z"/>
	<path fill="#FFFFFF" d="M117.414,33.146c0.121,0.034,0.223,0.073,0.309,0.117c0.086,0.045,0.155,0.099,0.208,0.161
		c0.054,0.063,0.091,0.136,0.115,0.219c0.024,0.082,0.036,0.181,0.036,0.294v0.088c0,0.131-0.021,0.249-0.063,0.349
		c-0.042,0.101-0.11,0.186-0.208,0.256c-0.098,0.068-0.222,0.121-0.375,0.157c-0.153,0.035-0.339,0.052-0.558,0.052
		c-0.089,0-0.202-0.007-0.346-0.023c-0.142-0.016-0.294-0.038-0.454-0.069l0.012-0.354c0.148,0.031,0.293,0.054,0.43,0.069
		c0.137,0.015,0.253,0.023,0.348,0.023c0.28,0,0.476-0.036,0.586-0.109c0.108-0.071,0.163-0.178,0.163-0.319v-0.151
		c0-0.108-0.027-0.19-0.081-0.247c-0.056-0.057-0.156-0.105-0.302-0.145l-0.563-0.157c-0.128-0.034-0.235-0.072-0.32-0.115
		c-0.086-0.042-0.154-0.095-0.205-0.157c-0.052-0.061-0.088-0.133-0.112-0.216c-0.023-0.083-0.036-0.181-0.036-0.295v-0.051
		c0-0.26,0.083-0.46,0.25-0.6c0.166-0.14,0.438-0.209,0.818-0.209c0.094,0,0.211,0.007,0.353,0.021
		c0.14,0.014,0.278,0.032,0.412,0.053l-0.011,0.346c-0.127-0.022-0.258-0.039-0.391-0.053c-0.134-0.014-0.254-0.021-0.363-0.021
		c-0.22,0-0.375,0.036-0.466,0.108c-0.091,0.073-0.137,0.179-0.137,0.32v0.12c0,0.055,0.005,0.102,0.017,0.14
		c0.011,0.039,0.033,0.073,0.065,0.103c0.033,0.031,0.078,0.058,0.137,0.081c0.058,0.023,0.133,0.047,0.224,0.071L117.414,33.146z"
		/>
	<path fill="#FFFFFF" d="M123.028,33.146c0.12,0.034,0.224,0.073,0.31,0.117c0.085,0.045,0.154,0.099,0.207,0.161
		c0.054,0.063,0.092,0.136,0.115,0.219c0.023,0.082,0.036,0.181,0.036,0.294v0.088c0,0.131-0.021,0.249-0.062,0.349
		c-0.043,0.101-0.112,0.186-0.209,0.256c-0.097,0.068-0.222,0.121-0.375,0.157c-0.153,0.035-0.339,0.052-0.558,0.052
		c-0.088,0-0.202-0.007-0.345-0.023s-0.294-0.038-0.454-0.069l0.012-0.354c0.148,0.031,0.291,0.054,0.429,0.069
		c0.137,0.015,0.253,0.023,0.348,0.023c0.28,0,0.476-0.036,0.586-0.109c0.108-0.071,0.163-0.178,0.163-0.319v-0.151
		c0-0.108-0.027-0.19-0.082-0.247c-0.055-0.057-0.154-0.105-0.301-0.145l-0.563-0.157c-0.128-0.034-0.234-0.072-0.319-0.115
		c-0.086-0.042-0.155-0.095-0.206-0.157c-0.052-0.061-0.088-0.133-0.112-0.216c-0.023-0.083-0.035-0.181-0.035-0.295v-0.051
		c0-0.26,0.082-0.46,0.249-0.6c0.166-0.14,0.438-0.209,0.818-0.209c0.095,0,0.212,0.007,0.353,0.021s0.278,0.032,0.413,0.053
		l-0.011,0.346c-0.128-0.022-0.258-0.039-0.392-0.053c-0.134-0.014-0.254-0.021-0.363-0.021c-0.22,0-0.375,0.036-0.466,0.108
		c-0.091,0.073-0.137,0.179-0.137,0.32v0.12c0,0.055,0.006,0.102,0.017,0.14s0.033,0.073,0.065,0.103
		c0.033,0.031,0.079,0.058,0.137,0.081c0.059,0.023,0.134,0.047,0.225,0.071L123.028,33.146z"/>
</g>
</svg>
